<svg width="628" height="588" viewBox="0 0 628 588" fill="none" xmlns="http://www.w3.org/2000/svg">
<path d="M515.295 518C515.295 520.857 514.026 523.73 511.442 526.602C508.852 529.479 504.986 532.303 499.924 535.024C489.802 540.466 475.089 545.398 456.823 549.552C420.306 557.855 369.811 563 314 563C258.19 563 207.694 557.855 171.178 549.552C152.912 545.398 138.198 540.466 128.076 535.024C123.014 532.303 119.148 529.479 116.558 526.602C113.974 523.73 112.705 520.857 112.705 518C112.705 515.143 113.974 512.27 116.558 509.398C119.148 506.521 123.014 503.697 128.076 500.976C138.198 495.534 152.912 490.602 171.178 486.448C207.694 478.145 258.19 473 314 473C369.811 473 420.306 478.145 456.823 486.448C475.089 490.602 489.802 495.534 499.924 500.976C504.986 503.697 508.852 506.521 511.442 509.398C514.026 512.27 515.295 515.143 515.295 518Z" stroke="white" stroke-width="2"/>
<line x1="430.111" y1="481" x2="430.111" y2="520" stroke="white" stroke-width="2"/>
<line x1="112.705" y1="518" x2="112.705" y2="545" stroke="white" stroke-width="2"/>
<line x1="351.1" y1="561" x2="351.1" y2="588" stroke="white" stroke-width="2"/>
<g clip-path="url(#clip0_5013_3653)">
<path d="M541.652 156.534L433 93L433.361 219.466L542 283L541.652 156.534Z" fill="white"/>
<path d="M122 398.793V156.705L331.506 35L397.193 73.2178V238.845L541 324.541V397.133L328.994 519L122 398.793Z" fill="#00C44A" stroke="white" stroke-width="2" stroke-miterlimit="10"/>
<path d="M541 397L331.506 276.911V35L396.224 72.5922L122 235.801" stroke="white" stroke-width="2" stroke-miterlimit="10"/>
<path d="M331.38 520L122 398.983V157L188.971 196.634V360.738L399 479.052" stroke="white" stroke-miterlimit="10"/>
<path d="M397 239L122 399" stroke="white" stroke-width="2" stroke-miterlimit="10"/>
<path d="M541 325L266 483" stroke="white" stroke-miterlimit="10"/>
<path d="M123 157.485V398L331 276.606V37L123 157.485Z" fill="white" fill-opacity="0.17"/>
<path d="M331.818 279L124 399.409L331.818 518L541 398.954L331.818 279Z" fill="white" fill-opacity="0.32"/>
<path d="M396 74.4232L332 37V276L396 238.688V74.4232Z" fill="black" fill-opacity="0.26"/>
<path d="M396.894 240L334 277.404L539.544 396L540 325.298L396.894 240Z" fill="black" fill-opacity="0.33"/>
<g clip-path="url(#clip1_5013_3653)">
<path fill-rule="evenodd" clip-rule="evenodd" d="M88.2339 105.398L88.3098 131.858L111.169 145.151L111.096 118.691L88.2339 105.398ZM88.6176 106.063L110.714 118.911L110.785 144.486L88.6909 131.638L88.6176 106.063Z" fill="white"/>
<path d="M23.1309 169.556V118.763L67.0013 93.2275L80.756 101.246V135.997L110.869 153.977V169.208L66.4753 194.777L23.1309 169.556Z" fill="#00C44A"/>
<path fill-rule="evenodd" clip-rule="evenodd" d="M67.0014 93.0068L80.9469 101.137V135.889L111.06 153.869V169.318L66.4748 194.998L22.9399 169.666V118.653L67.0014 93.0068ZM23.3217 118.873V169.446L66.4758 194.557L110.678 169.098V154.086L80.5651 136.106V101.356L67.0012 93.4489L23.3217 118.873Z" fill="white"/>
<path fill-rule="evenodd" clip-rule="evenodd" d="M66.8105 92.8955L80.9294 101.116L67.1923 109.311V143.892L110.964 169.042L110.774 169.373L66.8105 144.113V109.539L23.2287 135.538L23.0332 135.21L66.8105 109.094V92.8955ZM67.1923 108.866L80.1771 101.12L67.1923 93.5598V108.866Z" fill="white"/>
<path fill-rule="evenodd" clip-rule="evenodd" d="M23.0354 118.737L37.2583 127.146V161.495L81.2162 186.233L81.1227 186.4L37.0675 161.607V127.255L23.2263 119.072V169.501L67.049 194.805L66.9536 194.97L23.0354 169.612V118.737Z" fill="white"/>
<path fill-rule="evenodd" clip-rule="evenodd" d="M23.0349 169.391L80.66 135.832L80.8521 136.162L23.227 169.721L23.0349 169.391Z" fill="white"/>
<path fill-rule="evenodd" clip-rule="evenodd" d="M53.1755 186.985L110.822 153.895L110.917 154.06L53.2705 187.151L53.1755 186.985Z" fill="white"/>
<path d="M23.2864 118.882V169.405L66.8092 143.905V93.5732L23.2864 118.882Z" fill="white" fill-opacity="0.17"/>
<path d="M67.0955 144.286L23.4773 169.595L67.0955 194.522L111 169.5L67.0955 144.286Z" fill="white" fill-opacity="0.32"/>
<path d="M80.5532 101.405L67.1909 93.5498V143.714L80.5532 135.882V101.405Z" fill="black" fill-opacity="0.26"/>
<path d="M80.7441 136.169L67.5728 144L110.618 168.832L110.714 154.028L80.7441 136.169Z" fill="black" fill-opacity="0.33"/>
</g>
<g clip-path="url(#clip2_5013_3653)">
<path fill-rule="evenodd" clip-rule="evenodd" d="M476.12 56.5166L498.997 43.221L499.08 16.7781L476.201 30.0715L476.12 56.5166ZM476.504 55.8519L476.583 30.2915L498.696 17.4428L498.616 43.001L476.504 55.8519Z" fill="white"/>
<path d="M564.234 80.8182L520.246 106.215L476.197 80.9895L476.264 65.0683L506.359 47.6929L506.873 12.624L520.063 5.00872L564.404 30.6702L564.234 80.8182Z" fill="#00C44A"/>
<path fill-rule="evenodd" clip-rule="evenodd" d="M476.005 81.1005L476.073 64.9584L506.169 47.5824L506.684 12.5135L520.064 4.78872L564.595 30.5609L564.425 80.9291L520.246 106.436L476.005 81.1005ZM520.246 105.995L564.044 80.7084L564.213 30.7807L520.063 5.2298L507.063 12.7357L506.548 47.8046L476.454 65.1793L476.388 80.8796L520.246 105.995Z" fill="white"/>
<path fill-rule="evenodd" clip-rule="evenodd" d="M476.004 81.3211L476.064 64.9837L490.03 72.7828L519.978 55.4923L519.872 5.00948L520.254 5.00848L520.36 55.7124L490.418 72.9996L534.725 97.743L534.538 98.0763L490.033 73.222L476.004 81.3211ZM489.644 73.0052L476.444 65.6332L476.389 80.6584L489.644 73.0052Z" fill="white"/>
<path fill-rule="evenodd" clip-rule="evenodd" d="M520.271 106.311L520.442 89.7886L550.189 72.6143L549.634 22.1766L549.825 22.1744L550.381 72.7237L520.632 89.8994L520.466 105.978L564.139 80.7633L564.141 30.1599L564.332 30.1598L564.33 80.8734L520.271 106.311Z" fill="white"/>
<path fill-rule="evenodd" clip-rule="evenodd" d="M564.139 80.9841L506.264 47.8589L506.454 47.5275L564.329 80.6527L564.139 80.9841Z" fill="white"/>
<path fill-rule="evenodd" clip-rule="evenodd" d="M564.306 46.0847L506.825 12.7069L506.921 12.5418L564.402 45.9196L564.306 46.0847Z" fill="white"/>
<path d="M520.271 106.021L564.025 80.76L520.18 55.8182L476.592 80.984L520.271 106.021Z" fill="white" fill-opacity="0.17"/>
<path d="M520.368 55.3788L564.095 80.4988L563.873 30.2609L520.251 4.74963L520.368 55.3788Z" fill="white" fill-opacity="0.32"/>
<path d="M476.502 65.1656L476.381 80.665L519.824 55.5832L506.36 47.9268L476.502 65.1656Z" fill="black" fill-opacity="0.26"/>
<path d="M506.513 47.6177L519.881 55.1087L519.863 5.41441L506.995 12.7334L506.513 47.6177Z" fill="black" fill-opacity="0.33"/>
</g>
</g>
<defs>
<clipPath id="clip0_5013_3653">
<rect width="628" height="534" fill="white"/>
</clipPath>
<clipPath id="clip1_5013_3653">
<rect width="88" height="102" fill="white" transform="translate(23 93)"/>
</clipPath>
<clipPath id="clip2_5013_3653">
<rect width="88" height="102" fill="white" transform="translate(498 119.21) rotate(-120)"/>
</clipPath>
</defs>
</svg>
