<svg width="41" height="46" viewBox="0 0 41 46" fill="none" xmlns="http://www.w3.org/2000/svg">
<g clip-path="url(#clip0_5079_731)">
<path fill-rule="evenodd" clip-rule="evenodd" d="M40.7398 34.7365V13.0243C40.7398 11.9373 40.1605 10.9334 39.2226 10.3864C35.4574 8.20549 25.7615 2.5905 21.9963 0.409581C21.0584 -0.137379 19.8999 -0.130455 18.962 0.409581C9.1627 6.10073 12.1349 4.37677 1.76323 10.3864C0.825363 10.9334 0.246094 11.9373 0.246094 13.0243V32.9779C0.246094 34.0649 0.825363 35.0757 1.76323 35.6158C11.5763 41.3 8.61791 39.583 18.962 45.5857C19.8999 46.1326 21.0584 46.1326 21.9963 45.5857C26.8166 42.7886 41.2777 34.418 40.7398 34.7296V34.7365Z" fill="#0021F5"/>
<path opacity="0.21" d="M20.4219 6.09961L33.9382 14.1378V32.7206L20.4219 24.7862V6.09961Z" fill="white"/>
<path opacity="0.42" d="M12.5972 9.85352L26.1134 17.8987V36.4815L12.5972 28.5471V9.85352Z" fill="white"/>
<path d="M4.10107 13.1387L17.6105 21.1769V39.7666L4.10107 31.8322V13.1387Z" fill="white"/>
</g>
<defs>
<clipPath id="clip0_5079_731">
<rect width="40.5075" height="46" fill="white" transform="translate(0.246094)"/>
</clipPath>
</defs>
</svg>
