<svg width="35" height="40" viewBox="0 0 35 40" fill="none" xmlns="http://www.w3.org/2000/svg">
<g clip-path="url(#clip0_5104_588)">
<path fill-rule="evenodd" clip-rule="evenodd" d="M34.9881 30.2059V11.3257C34.9881 10.3805 34.4876 9.50752 33.6772 9.03191C30.4239 7.13546 22.0463 2.25286 18.793 0.356412C17.9826 -0.119205 16.9816 -0.113185 16.1713 0.356412C7.70429 5.30524 10.2724 3.80614 1.31086 9.03191C0.500511 9.50752 0 10.3805 0 11.3257V28.6767C0 29.6219 0.500511 30.5009 1.31086 30.9705C9.78975 35.9133 7.23357 34.4202 16.1713 39.64C16.9816 40.1156 17.9826 40.1156 18.793 39.64C22.958 37.2077 35.4528 29.929 34.9881 30.1999V30.2059Z" fill="#00C44A"/>
<path opacity="0.21" d="M17.4326 5.30469L29.1112 12.2945V28.4534L17.4326 21.5539V5.30469Z" fill="white"/>
<path opacity="0.42" d="M10.6716 8.56836L22.3502 15.5641V31.7231L10.6716 24.8236V8.56836Z" fill="white"/>
<path d="M3.33081 11.4238L15.0034 18.4136V34.5786L3.33081 27.6791V11.4238Z" fill="white"/>
</g>
<defs>
<clipPath id="clip0_5104_588">
<rect width="35" height="40" fill="white"/>
</clipPath>
</defs>
</svg>
