<svg width="575" height="583" viewBox="0 0 575 583" fill="none" xmlns="http://www.w3.org/2000/svg">
<path d="M283.46 200.142L4.47704 362.626C2.32418 363.88 1 366.184 1 368.675V409.887C1 412.365 2.30985 414.658 4.4441 415.916L283.427 580.445C285.617 581.737 288.336 581.739 290.529 580.45L570.546 415.915C572.686 414.657 574 412.361 574 409.879V368.683C574 366.187 572.672 363.88 570.513 362.628L290.496 200.136C288.32 198.874 285.634 198.876 283.46 200.142Z" stroke="white" stroke-width="2"/>
<path d="M574 366.746L292.052 532.417C288.919 534.257 285.035 534.254 281.906 532.408L1 366.746" stroke="white" stroke-width="2"/>
<line x1="287.024" y1="582.371" x2="287.024" y2="534.185" stroke="white" stroke-width="2"/>
<path d="M267.293 249.156L267.793 72.0864L288.385 60.1378L442.55 149.108L442.051 326.156L421.458 338.125L267.293 249.156Z" fill="#0021F5" stroke="white" stroke-width="2"/>
<path d="M268.038 72.9531L420.849 162.108V338.407" stroke="white" stroke-width="2"/>
<path d="M421.194 162.249L442.994 149.594" stroke="white" stroke-width="2"/>
<path d="M208.788 284.349L209.288 107.28L229.88 95.3311L384.045 184.301L383.546 361.349L362.953 373.319L208.788 284.349Z" fill="#0021F5" stroke="white" stroke-width="2"/>
<path d="M209.533 108.146L362.344 197.302V373.601" stroke="white" stroke-width="2"/>
<path d="M362.689 197.442L384.488 184.788" stroke="white" stroke-width="2"/>
<path d="M146.791 320.546L147.291 143.477L167.882 131.528L322.048 220.498L321.548 397.546L300.956 409.516L146.791 320.546Z" fill="#0021F5" stroke="white" stroke-width="2"/>
<path d="M147.535 144.346L300.346 233.501V409.8" stroke="white" stroke-width="2"/>
<path d="M300.691 233.642L322.491 220.987" stroke="white" stroke-width="2"/>
<path d="M83.4663 364.661V365.238L83.9665 365.527L286.297 482.276L286.799 482.566L287.299 482.275L488.29 365.554L488.786 365.266L488.788 364.692L489.444 132.333L489.445 131.753L488.943 131.464L286.613 14.7139L286.112 14.4251L285.612 14.7147L83.9652 131.464L83.4663 131.753V132.33V364.661Z" stroke="#6175F9" stroke-width="2"/>
<path d="M287.421 482.992V249.31L83.3535 132.434" stroke="#6175F9" stroke-width="2"/>
<path d="M287.421 249.462L489.556 131.877" stroke="#6175F9" stroke-width="2"/>
<path d="M286.722 15.0898L86 131.868L287.834 248.09L488 131.868L286.722 15.0898Z" fill="#0021F5"/>
<path d="M286.277 34.0898L125 127.813L287.17 221.09L448 127.813L286.277 34.0898Z" fill="#0021F5" fill-opacity="0.72" stroke="#6175F9" stroke-width="2"/>
<mask id="mask0_5079_669" style="mask-type:alpha" maskUnits="userSpaceOnUse" x="126" y="0" width="323" height="221">
<path d="M285.898 220.908L448.936 126.869L448.936 0.00050354L126.756 0.000475374L126.756 126.869L285.898 220.908Z" fill="#D9D9D9"/>
</mask>
<g mask="url(#mask0_5079_669)">
<path d="M266.066 209.263L266.565 32.1939L287.157 20.2452L441.323 109.215L440.823 286.263L420.231 298.233L266.066 209.263Z" fill="#0021F5" stroke="white" stroke-width="2"/>
<path d="M266.811 33.0605L419.621 122.216V298.515" stroke="white" stroke-width="2"/>
<path d="M419.966 122.356L441.766 109.702" stroke="white" stroke-width="2"/>
<path d="M207.562 241.263L208.062 64.1939L228.653 52.2452L382.819 141.215L382.319 318.263L361.727 330.233L207.562 241.263Z" fill="#0021F5" stroke="white" stroke-width="2"/>
<path d="M208.307 65.0605L361.117 154.216V330.515" stroke="white" stroke-width="2"/>
<path d="M361.462 154.356L383.262 141.702" stroke="white" stroke-width="2"/>
<path d="M145.564 277.263L146.063 100.194L166.655 88.2452L320.821 177.215L320.321 354.263L299.729 366.233L145.564 277.263Z" fill="#0021F5" stroke="white" stroke-width="2"/>
<path d="M146.308 101.062L299.119 190.218V366.517" stroke="white" stroke-width="2"/>
<path d="M299.464 190.358L321.264 177.704" stroke="white" stroke-width="2"/>
</g>
<path fill-rule="evenodd" clip-rule="evenodd" d="M173.003 493.175C173.003 492.395 172.881 491.595 172.63 490.802V490.809C172.379 490.002 172.026 489.222 171.579 488.469C171.131 487.723 170.602 487.031 169.999 486.414C169.395 485.797 168.724 485.275 168.012 484.861C167.3 484.447 166.635 484.203 166.025 484.122C165.421 484.04 164.885 484.115 164.438 484.339C163.983 484.576 163.624 484.942 163.373 485.458C163.122 485.973 163 486.624 163 487.404C163 488.184 163.115 488.977 163.359 489.771C163.61 490.578 163.956 491.351 164.397 492.097C164.845 492.85 165.38 493.542 165.984 494.159C166.601 494.789 167.286 495.318 167.998 495.732C168.71 496.146 169.368 496.383 169.972 496.464C170.582 496.546 171.111 496.471 171.558 496.254C172.013 496.017 172.372 495.651 172.623 495.135C172.874 494.613 173.003 493.955 173.003 493.175ZM170.867 491.941C170.867 492.45 170.792 492.863 170.636 493.182H170.643C170.501 493.508 170.297 493.752 170.039 493.901C169.775 494.05 169.47 494.104 169.117 494.064C168.785 494.03 168.405 493.894 167.998 493.657C167.591 493.419 167.211 493.121 166.866 492.762C166.513 492.402 166.215 491.989 165.95 491.541C165.699 491.093 165.502 490.625 165.353 490.13C165.211 489.629 165.143 489.133 165.143 488.638C165.143 488.143 165.218 487.723 165.36 487.397C165.502 487.072 165.706 486.834 165.97 486.685C166.235 486.536 166.533 486.475 166.879 486.516C167.225 486.556 167.605 486.692 168.012 486.929C168.419 487.167 168.798 487.465 169.144 487.825C169.49 488.184 169.788 488.584 170.046 489.039C170.311 489.486 170.507 489.954 170.643 490.449C170.799 490.944 170.867 491.432 170.867 491.941ZM181.372 497.034C181.683 497.841 181.839 498.662 181.839 499.503C181.839 500.344 181.677 501.001 181.358 501.435C181.053 501.883 180.632 502.12 180.103 502.154C179.581 502.188 178.984 502.019 178.32 501.632C177.73 501.293 177.214 500.845 176.767 500.289C176.557 500.032 176.373 499.74 176.211 499.435L176.197 503.212L174.156 502.032L174.19 491.039L176.136 492.165V493.107C176.306 492.965 176.509 492.877 176.746 492.85C177.194 492.802 177.723 492.965 178.34 493.318C179.005 493.697 179.595 494.22 180.117 494.871C180.646 495.515 181.06 496.241 181.365 497.034H181.372ZM179.527 499.367C179.69 499.123 179.778 498.77 179.778 498.309C179.778 497.848 179.696 497.394 179.534 496.959C179.378 496.539 179.167 496.166 178.896 495.827C178.639 495.495 178.333 495.23 177.994 495.033C177.655 494.837 177.35 494.749 177.079 494.783C176.807 494.81 176.59 494.939 176.434 495.176C176.278 495.42 176.197 495.773 176.197 496.247C176.197 496.722 176.272 497.156 176.428 497.583C176.584 498.004 176.801 498.384 177.065 498.723C177.33 499.055 177.642 499.326 177.981 499.516C178.32 499.706 178.625 499.794 178.883 499.767C179.154 499.747 179.371 499.611 179.527 499.374V499.367ZM189.821 504.141C189.821 503.273 189.665 502.432 189.347 501.625C189.028 500.811 188.587 500.079 188.031 499.428C187.482 498.77 186.899 498.262 186.18 497.848C185.461 497.434 184.823 497.244 184.254 497.278C183.684 497.299 183.236 497.536 182.904 497.97C182.579 498.404 182.416 499.035 182.416 499.842C182.416 500.649 182.579 501.449 182.911 502.276C183.236 503.09 183.704 503.85 184.301 504.555C184.912 505.26 185.617 505.85 186.417 506.311C187.048 506.678 187.611 506.895 188.099 506.956C188.587 507.01 188.994 506.915 189.32 506.684L188.235 504.704C187.997 504.84 187.739 504.88 187.448 504.84C187.17 504.806 186.851 504.684 186.471 504.467C186.058 504.223 185.691 503.924 185.379 503.578C185.067 503.226 184.83 502.832 184.661 502.398C184.572 502.161 184.511 501.924 184.471 501.686L189.781 504.752C189.784 504.701 189.789 504.65 189.794 504.599C189.799 504.548 189.804 504.497 189.808 504.446C189.821 504.331 189.821 504.229 189.821 504.141ZM184.451 500.303L187.902 502.297C187.875 502.025 187.807 501.761 187.712 501.496C187.563 501.103 187.36 500.744 187.102 500.418C186.844 500.086 186.532 499.821 186.186 499.625C185.841 499.428 185.529 499.333 185.257 499.36C184.993 499.381 184.789 499.509 184.64 499.74C184.546 499.881 184.485 500.076 184.451 500.303ZM195.206 503.056C195.762 503.382 196.257 503.796 196.691 504.311C197.132 504.813 197.485 505.403 197.729 506.081C197.98 506.746 198.109 507.492 198.102 508.312L198.088 512.937L196.047 511.757L196.061 507.498C196.061 506.847 195.939 506.291 195.681 505.837C195.437 505.389 195.091 505.03 194.636 504.765C194.318 504.582 194.019 504.494 193.762 504.501C193.511 504.501 193.307 504.623 193.158 504.854C193.016 505.098 192.948 505.464 192.948 505.966L192.934 509.953L190.893 508.773L190.913 500.696L192.86 501.822V502.792C193.063 502.649 193.294 502.561 193.578 502.555C194.046 502.534 194.582 502.697 195.186 503.043L195.206 503.056ZM208.878 519.156L204.816 506.291L202.727 505.084L198.617 513.229L200.788 514.483L201.608 512.707L205.847 515.155L206.654 517.874L208.878 519.156ZM205.189 512.924L202.286 511.248L203.751 508.068L205.189 512.924ZM218.142 516.457C218.569 517.487 218.779 518.532 218.772 519.603C218.766 520.675 218.555 521.468 218.121 522.018C217.694 522.547 217.097 522.818 216.338 522.825C215.578 522.818 214.703 522.526 213.713 521.95L209.556 519.549L209.583 509.044L213.74 511.445C214.731 512.015 215.605 512.74 216.365 513.615C217.124 514.483 217.714 515.433 218.135 516.457H218.142ZM216.25 519.875C216.501 519.529 216.629 519.027 216.629 518.362C216.629 517.698 216.507 517.047 216.256 516.423C216.012 515.792 215.666 515.216 215.219 514.693C214.771 514.164 214.249 513.73 213.632 513.378L211.699 512.266L211.679 518.776L213.612 519.888C214.222 520.241 214.751 520.417 215.198 520.417C215.653 520.404 215.999 520.227 216.243 519.875H216.25ZM231.475 525.504C231.475 524.71 231.319 523.937 231 523.184H231.007C230.681 522.425 230.227 521.726 229.637 521.082C229.047 520.431 228.341 519.875 227.521 519.4L223.56 517.115L223.533 527.62L225.656 528.84V525.944L227.494 527.009C228.308 527.477 229.013 527.742 229.61 527.782C230.206 527.816 230.661 527.64 230.986 527.253C231.312 526.867 231.475 526.297 231.475 525.504ZM229.338 524.269C229.338 524.832 229.169 525.185 228.85 525.321H228.843C228.525 525.463 228.029 525.341 227.378 524.961L225.656 523.964L225.669 520.316L227.392 521.313C228.05 521.692 228.538 522.133 228.857 522.635C229.176 523.144 229.338 523.707 229.338 524.269ZM236.934 527.151V529.308C236.839 529.247 236.764 529.2 236.696 529.159C236.629 529.111 236.554 529.064 236.473 529.016C235.917 528.691 235.462 528.616 235.11 528.786C234.771 528.955 234.594 529.417 234.594 530.19L234.581 534.001L232.546 532.828L232.566 524.751L234.513 525.877V526.948C234.703 526.758 234.947 526.643 235.245 526.629C235.706 526.595 236.276 526.772 236.934 527.151ZM245.024 535.981C245.024 535.161 244.862 534.347 244.536 533.533V533.52C244.204 532.713 243.749 531.96 243.166 531.275C242.583 530.576 241.932 530.02 241.179 529.586C240.426 529.152 239.762 528.949 239.179 528.976C238.602 528.996 238.148 529.227 237.802 529.654C237.476 530.088 237.3 530.712 237.3 531.519C237.3 532.326 237.47 533.133 237.795 533.954C238.134 534.774 238.589 535.52 239.165 536.219C239.748 536.91 240.42 537.48 241.159 537.907C241.898 538.335 242.563 538.538 243.146 538.518C243.729 538.497 244.19 538.267 244.523 537.839C244.855 537.399 245.024 536.802 245.024 535.981ZM242.963 534.788C242.956 535.249 242.881 535.608 242.719 535.852L242.712 535.866C242.556 536.11 242.346 536.239 242.074 536.266C241.803 536.286 241.498 536.192 241.159 536.002C240.82 535.812 240.515 535.547 240.243 535.208C239.979 534.869 239.762 534.496 239.592 534.062C239.436 533.635 239.362 533.201 239.362 532.726C239.362 532.251 239.443 531.899 239.599 531.655C239.769 531.424 239.986 531.295 240.257 531.268C240.528 531.241 240.833 531.322 241.172 531.519C241.511 531.716 241.817 531.98 242.088 532.319C242.359 532.651 242.569 533.024 242.725 533.445C242.888 533.872 242.97 534.327 242.963 534.788ZM248.422 532.109V534.082L250.172 535.093V536.897L248.415 535.886V539.169C248.402 539.515 248.49 539.826 248.639 540.105C248.795 540.376 249.005 540.586 249.277 540.742C249.595 540.925 249.873 540.986 250.097 540.918L250.64 542.885C250.429 542.933 250.178 542.919 249.88 542.838C249.595 542.749 249.297 542.621 248.978 542.437C248.151 541.963 247.507 541.346 247.052 540.606C246.591 539.847 246.36 538.986 246.367 538.029V534.713L245.289 534.082V532.278L246.381 532.909V530.936L248.422 532.109ZM258.032 541.325C258.357 542.139 258.52 542.953 258.52 543.773C258.52 544.594 258.35 545.191 258.018 545.631C257.686 546.059 257.225 546.289 256.641 546.31C256.058 546.33 255.394 546.126 254.654 545.699C253.915 545.272 253.244 544.702 252.661 544.011C252.084 543.312 251.63 542.566 251.291 541.746C250.965 540.925 250.796 540.118 250.796 539.311C250.796 538.504 250.972 537.88 251.297 537.446C251.643 537.019 252.098 536.788 252.674 536.768C253.257 536.741 253.922 536.944 254.675 537.378C255.427 537.812 256.078 538.368 256.662 539.067C257.245 539.752 257.699 540.504 258.032 541.311V541.325ZM256.214 543.644C256.377 543.4 256.451 543.041 256.458 542.58C256.465 542.119 256.384 541.664 256.221 541.237C256.065 540.816 255.855 540.443 255.583 540.111C255.312 539.772 255.007 539.508 254.668 539.311C254.329 539.114 254.024 539.033 253.752 539.06C253.481 539.087 253.264 539.216 253.095 539.447C252.939 539.691 252.857 540.043 252.857 540.518C252.857 540.993 252.932 541.427 253.088 541.854C253.257 542.288 253.474 542.661 253.739 543C254.01 543.339 254.315 543.604 254.654 543.794C254.993 543.983 255.299 544.078 255.57 544.058C255.841 544.031 256.051 543.902 256.207 543.658L256.214 543.644ZM264.962 543.868C264.413 543.19 263.769 542.641 263.03 542.214V542.22C262.27 541.78 261.599 541.569 261.002 541.59C260.412 541.597 259.944 541.82 259.598 542.248C259.266 542.682 259.096 543.312 259.096 544.113C259.096 544.913 259.259 545.72 259.585 546.54C259.93 547.368 260.392 548.127 260.982 548.833C261.578 549.524 262.27 550.101 263.009 550.528C263.749 550.955 264.393 551.152 264.942 551.118C265.491 551.071 265.898 550.806 266.163 550.304L264.583 548.399C264.4 548.683 264.162 548.833 263.884 548.853C263.613 548.866 263.315 548.778 262.996 548.595C262.65 548.392 262.338 548.12 262.06 547.781C261.782 547.436 261.558 547.056 261.395 546.629C261.239 546.208 261.151 545.76 261.158 545.293C261.165 544.825 261.246 544.472 261.402 544.228C261.572 543.997 261.789 543.868 262.073 543.855C262.352 543.834 262.663 543.923 263.016 544.126C263.335 544.309 263.633 544.574 263.905 544.913C264.183 545.252 264.413 545.666 264.596 546.154L266.176 546.086C265.919 545.279 265.512 544.533 264.962 543.868ZM276.966 558.469L277 547.334L274.965 546.16L274.932 557.289L276.966 558.469ZM274.314 552.895C274.314 552.067 274.145 551.254 273.819 550.44V550.433C273.494 549.626 273.033 548.873 272.449 548.188C271.873 547.49 271.215 546.927 270.469 546.5C269.723 546.072 269.052 545.862 268.469 545.889C267.892 545.91 267.438 546.14 267.092 546.567C266.76 547.001 266.59 547.632 266.59 548.432C266.59 549.233 266.753 550.04 267.078 550.86C267.417 551.681 267.872 552.427 268.448 553.125C269.032 553.824 269.703 554.393 270.449 554.821C271.195 555.248 271.853 555.451 272.436 555.431C273.019 555.411 273.48 555.187 273.813 554.753C274.138 554.312 274.314 553.722 274.314 552.895ZM272.246 551.701C272.246 552.162 272.165 552.515 272.009 552.766V552.773C271.853 553.01 271.636 553.139 271.364 553.166C271.093 553.193 270.795 553.105 270.449 552.908C270.103 552.712 269.805 552.447 269.533 552.115C269.262 551.776 269.045 551.396 268.882 550.969C268.726 550.541 268.638 550.101 268.645 549.633C268.652 549.165 268.733 548.812 268.889 548.568C269.059 548.331 269.276 548.202 269.547 548.181C269.818 548.147 270.123 548.236 270.462 548.432C270.802 548.629 271.107 548.893 271.378 549.233C271.642 549.565 271.859 549.945 272.015 550.365C272.171 550.786 272.246 551.24 272.246 551.701Z" fill="white"/>
</svg>
