<svg width="292" height="46" viewBox="0 0 292 46" fill="none" xmlns="http://www.w3.org/2000/svg">
<g clip-path="url(#clip0_5104_3)">
<path fill-rule="evenodd" clip-rule="evenodd" d="M40.4937 34.7355V13.0233C40.4937 11.9363 39.9144 10.9324 38.9765 10.3854C35.2113 8.20451 25.5154 2.58952 21.7502 0.408604C20.8123 -0.138356 19.6538 -0.131432 18.7159 0.408604C8.91661 6.09975 11.8888 4.37579 1.51713 10.3854C0.579269 10.9324 0 11.9363 0 13.0233V32.9769C0 34.0639 0.579269 35.0748 1.51713 35.6148C11.3302 41.299 8.37182 39.582 18.7159 45.5847C19.6538 46.1317 20.8123 46.1317 21.7502 45.5847C26.5705 42.7876 41.0316 34.417 40.4937 34.7286V34.7355Z" fill="white" fill-opacity="0.35"/>
<path opacity="0.21" d="M20.1758 6.09961L33.6921 14.1378V32.7206L20.1758 24.7862V6.09961Z" fill="white"/>
<path opacity="0.42" d="M12.3511 9.85352L25.8674 17.8987V36.4815L12.3511 28.5471V9.85352Z" fill="white"/>
<path d="M3.85498 13.1377L17.3644 21.1759V39.7656L3.85498 31.8313V13.1377Z" fill="white"/>
</g>
<path d="M287.622 30.4443V10.2988H291.858V30.4443H287.622Z" fill="white"/>
<path d="M262.828 30.6613C261.253 30.6613 259.85 30.3446 258.619 29.7111C257.389 29.0595 256.42 28.1635 255.714 27.0232C255.027 25.8829 254.683 24.5887 254.683 23.1407C254.683 21.6746 255.027 20.3805 255.714 19.2582C256.42 18.1179 257.389 17.231 258.619 16.5975C259.85 15.9459 261.253 15.6201 262.828 15.6201C264.366 15.6201 265.706 15.9459 266.846 16.5975C267.986 17.231 268.828 18.1451 269.371 19.3397L266.086 21.1045C265.706 20.4167 265.226 19.9099 264.647 19.584C264.086 19.2582 263.47 19.0953 262.801 19.0953C262.077 19.0953 261.425 19.2582 260.846 19.584C260.267 19.9099 259.805 20.3714 259.461 20.9687C259.135 21.566 258.972 22.29 258.972 23.1407C258.972 23.9914 259.135 24.7154 259.461 25.3127C259.805 25.91 260.267 26.3716 260.846 26.6974C261.425 27.0232 262.077 27.1861 262.801 27.1861C263.47 27.1861 264.086 27.0323 264.647 26.7246C265.226 26.3987 265.706 25.8829 266.086 25.177L269.371 26.9689C268.828 28.1454 267.986 29.0595 266.846 29.7111C265.706 30.3446 264.366 30.6613 262.828 30.6613Z" fill="white"/>
<path d="M245.472 30.6613C243.915 30.6613 242.53 30.3355 241.318 29.6839C240.123 29.0323 239.173 28.1454 238.467 27.0232C237.779 25.8829 237.435 24.5887 237.435 23.1407C237.435 21.6746 237.779 20.3805 238.467 19.2582C239.173 18.1179 240.123 17.231 241.318 16.5975C242.53 15.9459 243.915 15.6201 245.472 15.6201C247.01 15.6201 248.386 15.9459 249.598 16.5975C250.811 17.231 251.761 18.1089 252.449 19.2311C253.137 20.3533 253.481 21.6565 253.481 23.1407C253.481 24.5887 253.137 25.8829 252.449 27.0232C251.761 28.1454 250.811 29.0323 249.598 29.6839C248.386 30.3355 247.01 30.6613 245.472 30.6613ZM245.472 27.1861C246.177 27.1861 246.811 27.0232 247.372 26.6974C247.933 26.3716 248.377 25.91 248.702 25.3127C249.028 24.6973 249.191 23.9733 249.191 23.1407C249.191 22.29 249.028 21.566 248.702 20.9687C248.377 20.3714 247.933 19.9099 247.372 19.584C246.811 19.2582 246.177 19.0953 245.472 19.0953C244.766 19.0953 244.132 19.2582 243.571 19.584C243.01 19.9099 242.557 20.3714 242.213 20.9687C241.888 21.566 241.725 22.29 241.725 23.1407C241.725 23.9733 241.888 24.6973 242.213 25.3127C242.557 25.91 243.01 26.3716 243.571 26.6974C244.132 27.0232 244.766 27.1861 245.472 27.1861Z" fill="white"/>
<path d="M278.298 30.6613C276.741 30.6613 275.356 30.3355 274.144 29.6839C272.949 29.0323 271.999 28.1454 271.293 27.0232C270.605 25.8829 270.261 24.5887 270.261 23.1407C270.261 21.6746 270.605 20.3805 271.293 19.2582C271.999 18.1179 272.949 17.231 274.144 16.5975C275.356 15.9459 276.741 15.6201 278.298 15.6201C279.836 15.6201 281.212 15.9459 282.425 16.5975C283.637 17.231 284.587 18.1089 285.275 19.2311C285.963 20.3533 286.307 21.6565 286.307 23.1407C286.307 24.5887 285.963 25.8829 285.275 27.0232C284.587 28.1454 283.637 29.0323 282.425 29.6839C281.212 30.3355 279.836 30.6613 278.298 30.6613ZM278.298 27.1861C279.004 27.1861 279.637 27.0232 280.198 26.6974C280.759 26.3716 281.203 25.91 281.529 25.3127C281.854 24.6973 282.017 23.9733 282.017 23.1407C282.017 22.29 281.854 21.566 281.529 20.9687C281.203 20.3714 280.759 19.9099 280.198 19.584C279.637 19.2582 279.004 19.0953 278.298 19.0953C277.592 19.0953 276.958 19.2582 276.397 19.584C275.836 19.9099 275.384 20.3714 275.04 20.9687C274.714 21.566 274.551 22.29 274.551 23.1407C274.551 23.9733 274.714 24.6973 275.04 25.3127C275.384 25.91 275.836 26.3716 276.397 26.6974C276.958 27.0232 277.592 27.1861 278.298 27.1861Z" fill="white"/>
<path d="M233.689 30.6613C231.97 30.6613 230.63 30.2269 229.671 29.3581C228.712 28.4712 228.232 27.159 228.232 25.4213V12.6064H232.467V25.367C232.467 25.9824 232.63 26.4621 232.956 26.806C233.282 27.1318 233.725 27.2947 234.286 27.2947C234.956 27.2947 235.526 27.1137 235.997 26.7517L237.137 29.7382C236.703 30.0459 236.178 30.2812 235.563 30.4441C234.965 30.5889 234.341 30.6613 233.689 30.6613ZM225.979 19.4211V16.1631H236.106V19.4211H225.979Z" fill="white"/>
<path d="M217.419 30.6613C215.862 30.6613 214.478 30.3355 213.265 29.6839C212.07 29.0323 211.12 28.1454 210.414 27.0232C209.726 25.8829 209.382 24.5887 209.382 23.1407C209.382 21.6746 209.726 20.3805 210.414 19.2582C211.12 18.1179 212.07 17.231 213.265 16.5975C214.478 15.9459 215.862 15.6201 217.419 15.6201C218.957 15.6201 220.333 15.9459 221.546 16.5975C222.758 17.231 223.709 18.1089 224.396 19.2311C225.084 20.3533 225.428 21.6565 225.428 23.1407C225.428 24.5887 225.084 25.8829 224.396 27.0232C223.709 28.1454 222.758 29.0323 221.546 29.6839C220.333 30.3355 218.957 30.6613 217.419 30.6613ZM217.419 27.1861C218.125 27.1861 218.758 27.0232 219.319 26.6974C219.88 26.3716 220.324 25.91 220.65 25.3127C220.975 24.6973 221.138 23.9733 221.138 23.1407C221.138 22.29 220.975 21.566 220.65 20.9687C220.324 20.3714 219.88 19.9099 219.319 19.584C218.758 19.2582 218.125 19.0953 217.419 19.0953C216.713 19.0953 216.079 19.2582 215.518 19.584C214.957 19.9099 214.505 20.3714 214.161 20.9687C213.835 21.566 213.672 22.29 213.672 23.1407C213.672 23.9733 213.835 24.6973 214.161 25.3127C214.505 25.91 214.957 26.3716 215.518 26.6974C216.079 27.0232 216.713 27.1861 217.419 27.1861Z" fill="white"/>
<path d="M199.531 30.4441V15.8373H203.576V19.9641L203.006 18.7695C203.44 17.7378 204.137 16.9595 205.097 16.4346C206.056 15.8916 207.223 15.6201 208.599 15.6201V19.5297C208.418 19.5116 208.255 19.5026 208.11 19.5026C207.965 19.4845 207.812 19.4754 207.649 19.4754C206.49 19.4754 205.549 19.8103 204.825 20.48C204.119 21.1316 203.766 22.1543 203.766 23.548V30.4441H199.531Z" fill="white"/>
<path d="M180.779 30.4446V11.4395H189.005C190.707 11.4395 192.173 11.72 193.404 12.2811C194.634 12.8241 195.585 13.6115 196.254 14.6432C196.924 15.6749 197.259 16.9057 197.259 18.3356C197.259 19.7474 196.924 20.9692 196.254 22.0009C195.585 23.0326 194.634 23.829 193.404 24.3901C192.173 24.9331 190.707 25.2046 189.005 25.2046H183.222L185.177 23.2226V30.4446H180.779ZM185.177 23.7113L183.222 21.6208H188.761C190.118 21.6208 191.132 21.3312 191.802 20.752C192.471 20.1728 192.806 19.3673 192.806 18.3356C192.806 17.2858 192.471 16.4713 191.802 15.8921C191.132 15.3129 190.118 15.0233 188.761 15.0233H183.222L185.177 12.9327V23.7113Z" fill="white"/>
<path d="M151.745 30.4446V11.4395H160.378C162.442 11.4395 164.261 11.8377 165.836 12.6341C167.41 13.4124 168.641 14.5074 169.528 15.9192C170.415 17.331 170.858 19.0053 170.858 20.942C170.858 22.8606 170.415 24.5349 169.528 25.9648C168.641 27.3766 167.41 28.4807 165.836 29.2771C164.261 30.0554 162.442 30.4446 160.378 30.4446H151.745ZM156.143 26.8336H160.161C161.428 26.8336 162.523 26.5983 163.446 26.1277C164.388 25.639 165.112 24.9512 165.618 24.0643C166.143 23.1774 166.406 22.1366 166.406 20.942C166.406 19.7293 166.143 18.6886 165.618 17.8198C165.112 16.9328 164.388 16.2541 163.446 15.7835C162.523 15.2948 161.428 15.0504 160.161 15.0504H156.143V26.8336Z" fill="white"/>
<path d="M129.003 30.4446L137.474 11.4395H141.818L150.316 30.4446H145.7L138.75 13.6658H140.487L133.51 30.4446H129.003ZM133.238 26.3721L134.406 23.0326H144.18L145.375 26.3721H133.238Z" fill="white"/>
<path d="M121.852 15.6201C123.01 15.6201 124.042 15.8554 124.947 16.326C125.87 16.7785 126.594 17.4844 127.119 18.4437C127.644 19.3849 127.906 20.5977 127.906 22.0819V30.4441H123.671V22.7335C123.671 21.557 123.408 20.6882 122.883 20.1271C122.377 19.5659 121.653 19.2854 120.711 19.2854C120.042 19.2854 119.435 19.4302 118.892 19.7198C118.367 19.9913 117.951 20.4167 117.643 20.9959C117.354 21.5751 117.209 22.3172 117.209 23.2222V30.4441H112.974V15.8373H117.019V19.8827L116.259 18.6609C116.784 17.6835 117.535 16.9324 118.512 16.4075C119.49 15.8826 120.603 15.6201 121.852 15.6201Z" fill="white"/>
<path d="M103.638 30.6613C101.973 30.6613 100.507 30.3355 99.2395 29.6839C97.9906 29.0323 97.0223 28.1454 96.3344 27.0232C95.6466 25.8829 95.3027 24.5887 95.3027 23.1407C95.3027 21.6746 95.6376 20.3805 96.3073 19.2582C96.9951 18.1179 97.9273 17.231 99.1038 16.5975C100.28 15.9459 101.611 15.6201 103.095 15.6201C104.525 15.6201 105.81 15.9278 106.95 16.5432C108.109 17.1405 109.023 18.0093 109.692 19.1496C110.362 20.2719 110.697 21.6203 110.697 23.195C110.697 23.3579 110.688 23.548 110.67 23.7652C110.652 23.9643 110.634 24.1543 110.615 24.3353H98.7508V21.8647H108.389L106.76 22.5977C106.76 21.8375 106.606 21.1769 106.299 20.6158C105.991 20.0547 105.566 19.6202 105.023 19.3125C104.48 18.9867 103.846 18.8238 103.122 18.8238C102.398 18.8238 101.755 18.9867 101.194 19.3125C100.651 19.6202 100.226 20.0637 99.9183 20.6429C99.6106 21.204 99.4567 21.8737 99.4567 22.652V23.3036C99.4567 24.1 99.6287 24.8059 99.9726 25.4213C100.335 26.0186 100.832 26.4802 101.466 26.806C102.117 27.1137 102.878 27.2676 103.746 27.2676C104.525 27.2676 105.204 27.1499 105.783 26.9146C106.38 26.6793 106.923 26.3263 107.412 25.8557L109.665 28.2993C108.995 29.0595 108.154 29.6477 107.14 30.064C106.127 30.4622 104.959 30.6613 103.638 30.6613Z" fill="white"/>
<path d="M86.8198 30.6613C85.589 30.6613 84.512 30.3898 83.5889 29.8468C82.6658 29.3038 81.9418 28.4803 81.4169 27.3762C80.9101 26.2539 80.6567 24.8421 80.6567 23.1407C80.6567 21.4212 80.9011 20.0094 81.3898 18.9053C81.8785 17.8012 82.5844 16.9776 83.5075 16.4346C84.4306 15.8916 85.5347 15.6201 86.8198 15.6201C88.1954 15.6201 89.4262 15.9369 90.5122 16.5704C91.6163 17.1858 92.4851 18.0546 93.1186 19.1768C93.7703 20.299 94.0961 21.6203 94.0961 23.1407C94.0961 24.6792 93.7703 26.0096 93.1186 27.1318C92.4851 28.254 91.6163 29.1228 90.5122 29.7382C89.4262 30.3536 88.1954 30.6613 86.8198 30.6613ZM78.186 35.7113V15.8373H82.2314V18.8238L82.15 23.1679L82.4215 27.4848V35.7113H78.186ZM86.0867 27.1861C86.7927 27.1861 87.4171 27.0232 87.9601 26.6974C88.5212 26.3716 88.9647 25.91 89.2905 25.3127C89.6344 24.6973 89.8063 23.9733 89.8063 23.1407C89.8063 22.29 89.6344 21.566 89.2905 20.9687C88.9647 20.3714 88.5212 19.9099 87.9601 19.584C87.4171 19.2582 86.7927 19.0953 86.0867 19.0953C85.3808 19.0953 84.7473 19.2582 84.1862 19.584C83.6251 19.9099 83.1817 20.3714 82.8559 20.9687C82.5301 21.566 82.3672 22.29 82.3672 23.1407C82.3672 23.9733 82.5301 24.6973 82.8559 25.3127C83.1817 25.91 83.6251 26.3716 84.1862 26.6974C84.7473 27.0232 85.3808 27.1861 86.0867 27.1861Z" fill="white"/>
<path d="M65.351 30.77C63.8487 30.77 62.455 30.5257 61.1698 30.037C59.9028 29.5483 58.7987 28.8605 57.8575 27.9736C56.9344 27.0867 56.2104 26.0459 55.6855 24.8513C55.1787 23.6567 54.9253 22.3535 54.9253 20.9417C54.9253 19.5298 55.1787 18.2266 55.6855 17.032C56.2104 15.8374 56.9435 14.7967 57.8847 13.9098C58.8259 13.0228 59.93 12.335 61.197 11.8463C62.464 11.3576 63.8396 11.1133 65.3238 11.1133C66.8261 11.1133 68.2017 11.3576 69.4507 11.8463C70.7177 12.335 71.8127 13.0228 72.7358 13.9098C73.677 14.7967 74.4101 15.8374 74.935 17.032C75.4599 18.2085 75.7224 19.5117 75.7224 20.9417C75.7224 22.3535 75.4599 23.6657 74.935 24.8784C74.4101 26.073 73.677 27.1138 72.7358 28.0007C71.8127 28.8695 70.7177 29.5483 69.4507 30.037C68.2017 30.5257 66.8352 30.77 65.351 30.77ZM65.3238 27.0233C66.1745 27.0233 66.9528 26.8785 67.6587 26.5889C68.3827 26.2993 69.0163 25.883 69.5593 25.34C70.1023 24.797 70.5186 24.1544 70.8082 23.4123C71.1159 22.6702 71.2697 21.8467 71.2697 20.9417C71.2697 20.0366 71.1159 19.2131 70.8082 18.471C70.5186 17.7289 70.1023 17.0863 69.5593 16.5433C69.0344 16.0003 68.4099 15.584 67.6859 15.2944C66.9619 15.0048 66.1745 14.86 65.3238 14.86C64.4731 14.86 63.6858 15.0048 62.9618 15.2944C62.2558 15.584 61.6314 16.0003 61.0884 16.5433C60.5454 17.0863 60.12 17.7289 59.8123 18.471C59.5227 19.2131 59.3779 20.0366 59.3779 20.9417C59.3779 21.8286 59.5227 22.6521 59.8123 23.4123C60.12 24.1544 60.5363 24.797 61.0612 25.34C61.6042 25.883 62.2377 26.2993 62.9618 26.5889C63.6858 26.8785 64.4731 27.0233 65.3238 27.0233Z" fill="white"/>
<defs>
<clipPath id="clip0_5104_3">
<rect width="40.5075" height="46" fill="white"/>
</clipPath>
</defs>
</svg>
