<svg width="250" height="32" viewBox="0 0 250 32" fill="none" xmlns="http://www.w3.org/2000/svg">
<g clip-path="url(#clip0_411_2)">
<path d="M20.8517 14.1657L6.20307 22.5346L4.45216 21.5353V10.4647L18.2955 2.54908L13.8387 0L0 7.91557V24.0891L6.20775 27.6374L20.8563 19.2592V14.1657H20.8517Z" fill="#349ACD"/>
<path d="M21.6522 4.36258L7.35938 12.6344V17.7927L21.6522 9.47462L23.5529 10.5664V21.3642L9.59716 29.4463L14.0119 32L27.9676 23.9179V8.01272L21.6522 4.36258Z" fill="#349ACD"/>
<path d="M75.8133 18.1628C75.7805 17.2977 75.9303 16.4372 76.258 15.6322C76.5857 14.8272 77.082 14.0963 77.714 13.481C78.346 12.8703 79.1044 12.3892 79.9377 12.0746C80.771 11.76 81.6605 11.612 82.5547 11.6444C83.4348 11.6073 84.315 11.7554 85.1342 12.0746C85.9535 12.3938 86.6885 12.8842 87.2924 13.5041C88.4816 14.7764 89.1136 16.4464 89.0527 18.1582V19.472H79.713C79.7458 19.7912 79.8534 20.1058 80.0173 20.3834C80.1811 20.6656 80.4059 20.9062 80.6774 21.1005C81.2298 21.503 81.9086 21.7158 82.6015 21.6973C83.8047 21.7112 84.9844 21.3457 85.9629 20.6656L88.1211 22.7613C87.1567 24.0659 85.2326 24.7275 82.5734 24.7275C81.6792 24.7599 80.7897 24.6118 79.9564 24.2972C79.1231 23.9827 78.3647 23.5015 77.7327 22.8909C77.1007 22.2802 76.6044 21.5492 76.2767 20.7396C75.949 19.9347 75.7992 19.0742 75.832 18.2091L75.8133 18.1628ZM84.4788 15.2205C83.9264 14.8411 83.2663 14.6329 82.5875 14.6329C81.9086 14.6329 81.2485 14.8365 80.6961 15.2205C80.4339 15.4102 80.2186 15.6553 80.0782 15.9422C79.9377 16.229 79.8675 16.5436 79.8768 16.8582H85.2887C85.3028 16.539 85.2325 16.2244 85.0921 15.9422C84.947 15.6553 84.7363 15.4102 84.4695 15.2205H84.4788Z" fill="#040000"/>
<path d="M42.3354 21.8684C41.4085 20.9432 40.6782 19.8375 40.1913 18.6254C39.7044 17.4087 39.4703 16.1041 39.5078 14.7948C39.4797 13.4856 39.7185 12.181 40.2053 10.9643C40.6922 9.74757 41.4225 8.64189 42.3495 7.712C43.2764 6.78212 44.3813 6.05117 45.5985 5.56078C46.8157 5.0704 48.1172 4.82983 49.428 4.85296C50.7435 4.8252 52.0497 5.06114 53.2669 5.55153C54.4888 6.04192 55.5936 6.77287 56.5253 7.70275C57.4569 8.63263 58.1872 9.73832 58.6741 10.9597C59.1657 12.1764 59.4044 13.4856 59.3716 14.7995C59.3997 16.1133 59.161 17.4179 58.6694 18.6347C58.1778 19.8514 57.4475 20.9571 56.5159 21.8869C55.5889 22.8168 54.4794 23.5431 53.2622 24.0335C52.045 24.5239 50.7388 24.7599 49.4233 24.7321C48.1078 24.7645 46.8017 24.5285 45.5845 24.0382C44.3672 23.5478 43.2624 22.8122 42.3354 21.8731V21.8684ZM49.4421 21.0172C50.2426 21.045 51.0432 20.9015 51.7875 20.5916C52.5272 20.2816 53.192 19.8144 53.7397 19.2268C54.8493 18.024 55.4485 16.4325 55.4017 14.7948C55.4532 13.1525 54.8539 11.5518 53.7397 10.3444C53.1779 9.77533 52.5038 9.32658 51.7641 9.01662C51.0244 8.70666 50.2332 8.54936 49.4327 8.54936C48.6321 8.54936 47.841 8.70666 47.1013 9.01662C46.3616 9.32658 45.6921 9.77533 45.1257 10.3444C44.0114 11.5518 43.4169 13.1479 43.4637 14.7856C43.4169 16.4233 44.0114 18.0147 45.1257 19.2176C45.6734 19.8097 46.3382 20.277 47.0826 20.587C47.8269 20.8969 48.6275 21.045 49.4327 21.0172H49.4514H49.4421Z" fill="#040000"/>
<path d="M61.0896 30.2975V12.0376L64.8629 11.6444V12.6899C65.715 12.0422 66.7543 11.6768 67.831 11.6444C68.7486 11.6027 69.6662 11.7554 70.5183 12.0931C71.3703 12.4308 72.1334 12.949 72.756 13.6059C73.9311 14.8643 74.5819 16.502 74.5819 18.2044C74.5819 19.9069 73.9311 21.5446 72.756 22.803C72.1334 23.4599 71.3656 23.978 70.5183 24.3158C69.6662 24.6535 68.7486 24.8061 67.831 24.7645C66.7449 24.7738 65.6869 24.399 64.8629 23.7097V30.3068L61.0896 30.2975ZM64.8629 17.0247V19.1482C64.9332 19.8514 65.2655 20.4991 65.7946 20.9802C66.3283 21.4567 67.0211 21.7297 67.7421 21.7389C68.669 21.762 69.5632 21.429 70.2467 20.8183C70.9256 20.2076 71.3375 19.3656 71.3937 18.4681C71.2954 16.0208 70.0876 14.7301 67.7421 14.6653C65.9865 14.929 65.0455 15.7109 64.8629 17.0294V17.0247Z" fill="#040000"/>
<path d="M94.4738 16.4094V24.7182H90.7754V12.0283L94.4738 11.6397V12.8287C95.3446 12.0561 96.4822 11.6351 97.6526 11.6582C98.3642 11.612 99.0758 11.723 99.7406 11.9821C100.401 12.2412 101 12.6483 101.482 13.1618C102.344 14.1102 102.812 15.3454 102.798 16.6222V24.7275H99.0992V17.5336C99.1507 16.798 98.9119 16.0717 98.4391 15.5073C98.1769 15.2529 97.8633 15.0539 97.5215 14.9198C97.1798 14.7902 96.8099 14.7301 96.4448 14.744C95.6723 14.7995 94.9888 15.3593 94.4691 16.4094H94.4738Z" fill="#040000"/>
<path d="M104.759 24.7275L112.709 4.84836H116.693L124.632 24.7182H120.405L119.216 21.6695H110.199L109.001 24.7182L104.764 24.7275H104.759ZM114.806 10.1501L111.786 17.7002H117.751L114.806 10.1501Z" fill="#349ACD"/>
<path d="M125.859 24.7275V4.84836H133.626C139.904 4.84836 143.036 8.1654 143.031 14.7949C143.026 21.4243 139.89 24.7367 133.626 24.7321H125.859V24.7275ZM133.626 20.772C137.203 20.772 138.996 18.7781 139 14.7949C139.005 10.8116 137.217 8.82696 133.626 8.83621H129.895V20.772H133.626Z" fill="#349ACD"/>
<path d="M173.47 12.8472C173.91 12.3799 174.439 12.0145 175.029 11.7646C175.619 11.5148 176.256 11.3945 176.893 11.4038C177.305 11.4038 177.712 11.4408 178.115 11.5148L177.534 15.1187C177.005 14.6977 176.345 14.4756 175.666 14.5034C174.734 14.5682 174.032 15.2112 173.438 16.4418V24.4869H169.772V11.7878L173.438 11.3945L173.466 12.8472H173.47Z" fill="#040000"/>
<path d="M200.16 24.7229C198.816 24.7923 197.496 24.3435 196.49 23.4691C196.04 23.0528 195.684 22.5485 195.45 21.9887C195.216 21.429 195.104 20.8275 195.127 20.2261V14.4895H193.086V11.5009H195.127V7.91095L198.952 7.51309V11.5009H200.993V14.4895H198.952V19.6895C198.896 20.2261 199.06 20.7581 199.406 21.1791C199.561 21.3272 199.743 21.4382 199.945 21.5122C200.146 21.5862 200.361 21.6186 200.577 21.6094C200.923 21.577 201.265 21.5215 201.602 21.4382L202.407 24.0937C201.738 24.5101 200.956 24.7275 200.16 24.7136V24.7229Z" fill="#040000"/>
<path d="M181.846 23.6495C180.825 23.099 179.992 22.2709 179.449 21.2624C178.868 20.1613 178.578 18.9354 178.606 17.7001C178.578 16.4649 178.868 15.2436 179.449 14.1472C179.992 13.1386 180.825 12.3105 181.846 11.76C182.969 11.2002 184.215 10.9134 185.474 10.9134C186.733 10.9134 187.979 11.2048 189.102 11.76C190.123 12.3105 190.956 13.1386 191.499 14.1472C192.08 15.2436 192.37 16.4649 192.342 17.7001C192.37 18.9354 192.08 20.1613 191.499 21.2624C190.956 22.2709 190.123 23.099 189.102 23.6495C187.979 24.2001 186.733 24.4869 185.474 24.4869C184.215 24.4869 182.969 24.2001 181.846 23.6495ZM187.848 20.5684C188.423 19.7126 188.704 18.6994 188.643 17.677C188.704 16.6592 188.423 15.6461 187.848 14.7948C187.548 14.471 187.183 14.2073 186.775 14.0269C186.368 13.8465 185.923 13.7539 185.474 13.7539C185.025 13.7539 184.584 13.8465 184.172 14.0269C183.765 14.2073 183.4 14.4664 183.1 14.7948C182.52 15.6461 182.239 16.6592 182.305 17.677C182.234 18.6994 182.515 19.7172 183.1 20.5684C183.4 20.8923 183.765 21.1514 184.172 21.3272C184.58 21.503 185.025 21.5955 185.469 21.5955C185.914 21.5955 186.359 21.503 186.766 21.3272C187.173 21.1514 187.539 20.8923 187.838 20.5684H187.848Z" fill="#040000"/>
<path d="M205.834 23.6495C204.832 23.099 204.013 22.2709 203.479 21.2624C202.908 20.1613 202.623 18.9354 202.651 17.7001C202.623 16.4649 202.908 15.2436 203.479 14.1472C204.013 13.1386 204.828 12.3105 205.834 11.76C206.939 11.2002 208.161 10.9134 209.397 10.9134C210.633 10.9134 211.855 11.2048 212.96 11.76C213.961 12.3105 214.781 13.1386 215.314 14.1472C215.886 15.2436 216.171 16.4649 216.143 17.7001C216.171 18.9354 215.886 20.1613 215.314 21.2624C214.781 22.2709 213.966 23.099 212.96 23.6495C211.855 24.2001 210.633 24.4869 209.397 24.4869C208.161 24.4869 206.939 24.2001 205.834 23.6495ZM211.728 20.5684C212.304 19.7172 212.576 18.6994 212.51 17.677C212.576 16.6592 212.3 15.6461 211.728 14.7948C211.438 14.471 211.078 14.2073 210.675 14.0269C210.272 13.8465 209.837 13.7539 209.397 13.7539C208.957 13.7539 208.521 13.8465 208.119 14.0269C207.716 14.2073 207.36 14.4664 207.066 14.7948C206.494 15.6461 206.218 16.6592 206.284 17.677C206.218 18.6994 206.49 19.7172 207.066 20.5684C207.36 20.8923 207.721 21.1514 208.119 21.3272C208.517 21.503 208.957 21.5955 209.392 21.5955C209.828 21.5955 210.268 21.503 210.666 21.3272C211.064 21.1514 211.424 20.8923 211.719 20.5684H211.728Z" fill="#040000"/>
<path d="M234.05 23.6495C233.043 23.099 232.219 22.2709 231.686 21.2624C231.124 20.1613 230.843 18.9354 230.866 17.7001C230.838 16.4649 231.119 15.2482 231.686 14.1472C232.219 13.1386 233.043 12.3105 234.05 11.76C235.155 11.2048 236.372 10.9134 237.613 10.9134C238.853 10.9134 240.07 11.2048 241.175 11.76C242.182 12.3059 243.001 13.1386 243.53 14.1472C244.101 15.2436 244.387 16.4649 244.359 17.7001C244.387 18.9354 244.101 20.1613 243.53 21.2624C243.001 22.2709 242.182 23.1036 241.175 23.6495C240.07 24.2001 238.853 24.4869 237.613 24.4869C236.372 24.4869 235.155 24.2001 234.05 23.6495ZM239.939 20.5684C240.515 19.7172 240.796 18.6994 240.73 17.677C240.791 16.6546 240.515 15.6461 239.939 14.7948C239.649 14.471 239.289 14.2073 238.891 14.0315C238.493 13.8557 238.053 13.7586 237.617 13.7586C237.182 13.7586 236.742 13.8511 236.339 14.0315C235.937 14.2119 235.581 14.471 235.29 14.7948C234.715 15.6415 234.438 16.6546 234.499 17.677C234.434 18.6994 234.715 19.7172 235.29 20.5684C235.585 20.8923 235.941 21.1514 236.344 21.3272C236.746 21.503 237.177 21.5955 237.617 21.5955C238.057 21.5955 238.488 21.503 238.891 21.3272C239.293 21.1514 239.649 20.8923 239.944 20.5684H239.939Z" fill="#040000"/>
<path d="M219.785 22.7428C219.13 22.0905 218.619 21.304 218.287 20.4482C217.959 19.5877 217.814 18.6717 217.87 17.7557C217.814 16.835 217.959 15.9144 218.287 15.0493C218.615 14.1842 219.125 13.3977 219.785 12.7361C221.241 11.4685 223.151 10.8162 225.094 10.9273C226.073 10.9273 227.046 11.0984 227.964 11.4315C228.774 11.7091 229.513 12.1532 230.136 12.7361L228.9 15.0817C227.852 14.2443 226.541 13.7956 225.188 13.8141C224.691 13.7817 224.2 13.8511 223.732 14.013C223.264 14.1749 222.838 14.4247 222.472 14.7532C222.121 15.1603 221.854 15.6322 221.691 16.1411C221.527 16.65 221.466 17.1866 221.517 17.7187C221.475 18.2507 221.541 18.7873 221.714 19.2916C221.887 19.7959 222.163 20.2631 222.524 20.6656C222.903 20.9941 223.343 21.2485 223.825 21.4104C224.303 21.5723 224.813 21.6371 225.319 21.6047C225.941 21.614 226.564 21.5076 227.145 21.2948C227.73 21.0635 228.259 20.7165 228.704 20.2816L230.618 22.2339C229.982 22.9556 229.181 23.52 228.282 23.8855C226.887 24.4406 225.366 24.6211 223.877 24.4083C222.388 24.1954 220.979 23.6033 219.804 22.6827L219.785 22.7474V22.7428Z" fill="#040000"/>
<path d="M246.32 4.84836H250V24.4869H246.32V4.84836Z" fill="#040000"/>
<path d="M154.562 24.4869H158.181V17.5753H160.858C162.904 17.7187 164.931 17.1219 166.565 15.8959C167.225 15.313 167.745 14.5913 168.087 13.7817C168.429 12.9721 168.583 12.0977 168.541 11.2234C168.583 10.3444 168.424 9.46075 168.073 8.65115C167.722 7.84155 167.188 7.12448 166.509 6.55082C164.833 5.32948 162.773 4.73269 160.699 4.87148H154.562V24.4915V24.4869ZM158.181 7.92483H160.774C161.851 7.85543 162.918 8.14226 163.813 8.74831C164.168 9.03976 164.449 9.41449 164.632 9.83548C164.814 10.2565 164.894 10.7191 164.866 11.1771C164.899 11.6397 164.819 12.1024 164.636 12.5326C164.454 12.9582 164.173 13.3376 163.813 13.6337C162.923 14.2397 161.851 14.5265 160.774 14.4571H158.181V7.92483Z" fill="#040000"/>
</g>
<defs>
<clipPath id="clip0_411_2">
<rect width="250" height="32" fill="white"/>
</clipPath>
</defs>
</svg>
