<svg width="41" height="40" viewBox="0 0 41 40" fill="none" xmlns="http://www.w3.org/2000/svg">
<path d="M19.247 1.32586C20.0224 0.89138 20.9776 0.891381 21.753 1.32586L36.247 9.44788C37.0224 9.88236 37.5 10.6853 37.5 11.5543V27.7983C37.5 28.6673 37.0224 29.4702 36.247 29.9047L21.753 38.0267C20.9776 38.4612 20.0224 38.4612 19.247 38.0267L4.75297 29.9047C3.97763 29.4702 3.5 28.6673 3.5 27.7983V11.5543C3.5 10.6853 3.97763 9.88236 4.75297 9.44788L19.247 1.32586Z" fill="#1A73E8"/>
<path opacity="0.31" d="M21.1865 6.30078L32.4769 12.8178V27.8837L21.1865 21.4509V6.30078Z" fill="white"/>
<path d="M14.6504 9.34375L25.9407 15.8663V30.9323L14.6504 24.4995V9.34375Z" fill="white" fill-opacity="0.53"/>
<path d="M7.55371 12.0078L18.8383 18.5248V33.5963L7.55371 27.1636V12.0078Z" fill="white"/>
</svg>
