<svg xmlns="http://www.w3.org/2000/svg" fill="none" viewBox="0 0 44 44">
  <path fill="#E2761B" stroke="#E2761B" stroke-linecap="round" stroke-linejoin="round" d="M41.263 2 24.557 14.213l3.103-7.205L41.263 2Z"/>
  <path fill="#E4761B" stroke="#E4761B" stroke-linecap="round" stroke-linejoin="round" d="m2.736 2 16.555 12.329-2.952-7.321L2.736 2Zm32.525 28.31-4.445 6.71 9.51 2.578 2.718-9.14-7.783-.148Zm-34.286.149 2.7 9.139 9.51-2.578-4.428-6.71-7.782.149Z"/>
  <path fill="#E4761B" stroke="#E4761B" stroke-linecap="round" stroke-linejoin="round" d="m12.666 18.973-2.65 3.95 9.426.413-.319-9.999-6.457 5.636Zm18.667 0-6.558-5.751-.218 10.114 9.426-.413-2.65-3.95ZM13.188 37.02l5.686-2.727-4.898-3.768-.788 6.495Zm11.941-2.726 5.686 2.726-.788-6.495-4.898 3.769Z"/>
  <path fill="#D7C1B3" stroke="#D7C1B3" stroke-linecap="round" stroke-linejoin="round" d="m30.813 37.02-5.686-2.727.453 3.652-.05 1.537 5.283-2.462Zm-17.627 0 5.283 2.462-.034-1.537.437-3.652-5.686 2.727Z"/>
  <path fill="#233447" stroke="#233447" stroke-linecap="round" stroke-linejoin="round" d="m18.57 28.112-4.73-1.372 3.338-1.503 1.392 2.875Zm6.862 0 1.392-2.875 3.354 1.503-4.746 1.372Z"/>
  <path fill="#CD6116" stroke="#CD6116" stroke-linecap="round" stroke-linejoin="round" d="m13.188 37.02.822-6.71-5.25.149 4.428 6.561Zm16.806-6.71.822 6.71 4.445-6.561-5.267-.149Zm3.993-7.387-9.427.413.873 4.776 1.392-2.875 3.354 1.503 3.808-3.817ZM13.842 26.74l3.338-1.503 1.392 2.875.872-4.776-9.426-.413 3.824 3.817Z"/>
  <path fill="#E4751F" stroke="#E4751F" stroke-linecap="round" stroke-linejoin="round" d="m10.016 22.923 3.958 7.602-.134-3.785-3.824-3.817Zm20.16 3.817-.15 3.785 3.958-7.602-3.808 3.817Zm-10.734-3.404-.872 4.776 1.107 5.636.235-7.42-.47-2.992Zm5.116 0-.453 2.975.219 7.437 1.107-5.636-.873-4.776Z"/>
  <path fill="#F6851B" stroke="#F6851B" stroke-linecap="round" stroke-linejoin="round" d="m25.43 28.112-1.108 5.636.805.545 4.898-3.768.151-3.785-4.746 1.372ZM13.84 26.74l.134 3.785 4.898 3.768.805-.545-1.107-5.636-4.73-1.372Z"/>
  <path fill="#C0AD9E" stroke="#C0AD9E" stroke-linecap="round" stroke-linejoin="round" d="m25.53 39.482.05-1.537-.418-.363h-6.324l-.402.363.033 1.537-5.284-2.462 1.846 1.487 3.757 2.562h6.424l3.757-2.562 1.845-1.487-5.284 2.462Z"/>
  <path fill="#161616" stroke="#161616" stroke-linecap="round" stroke-linejoin="round" d="m25.13 34.293-.805-.546h-4.646l-.805.546-.436 3.652.402-.364h6.323l.42.364-.453-3.652Z"/>
  <path fill="#763D16" stroke="#763D16" stroke-linecap="round" stroke-linejoin="round" d="m41.967 15.006 1.41-6.742L41.262 2 25.127 13.8l6.206 5.173 8.772 2.528 1.93-2.23-.84-.596 1.343-1.206-1.024-.793 1.342-1.008-.889-.662ZM.623 8.264l1.426 6.742-.906.662 1.342 1.008-1.023.793 1.342 1.206-.84.595 1.93 2.231 8.772-2.528 6.206-5.173L2.736 2 .623 8.264Z"/>
  <path fill="#F6851B" stroke="#F6851B" stroke-linecap="round" stroke-linejoin="round" d="m40.106 21.502-8.772-2.53 2.65 3.95-3.959 7.603 5.234-.066h7.782L40.106 21.5v.002Zm-27.44-2.529-8.773 2.529-2.918 8.957h7.782l5.217.066-3.959-7.602 2.651-3.95Zm11.893 4.363.57-9.536 2.533-6.793H16.34l2.533 6.793.57 9.536.218 3.008.017 7.403h4.646l.017-7.404.218-3.007Z"/>
</svg>