<svg xmlns="http://www.w3.org/2000/svg" fill="none" viewBox="0 0 36 36">
  <rect width="36" height="36" fill="#000" rx="6"/>
  <path fill="#fff" d="M21.967 13.43h-7.924a.61.61 0 0 0-.61.61v7.923c0 .337.274.61.61.61h7.924a.61.61 0 0 0 .61-.61V14.04a.61.61 0 0 0-.61-.61ZM12.817 4.286H4.893a.61.61 0 0 0-.61.61v7.923c0 .337.273.61.61.61h7.924a.61.61 0 0 0 .61-.61V4.896a.61.61 0 0 0-.61-.61ZM31.104 4.286H23.18a.61.61 0 0 0-.61.61v7.923c0 .337.273.61.61.61h7.924a.61.61 0 0 0 .61-.61V4.896a.61.61 0 0 0-.61-.61ZM12.817 22.572H4.893a.61.61 0 0 0-.61.61v7.924c0 .336.273.61.61.61h7.924a.61.61 0 0 0 .61-.61v-7.924a.61.61 0 0 0-.61-.61ZM31.104 22.572H23.18a.61.61 0 0 0-.61.61v7.924c0 .336.273.61.61.61h7.924a.61.61 0 0 0 .61-.61v-7.924a.61.61 0 0 0-.61-.61Z"/>
</svg>