<svg xmlns="http://www.w3.org/2000/svg" fill="none" viewBox="0 0 50 50">
  <mask id="mask0_51_13" width="50" height="50" x="0" y="0" maskUnits="userSpaceOnUse" style="mask-type:luminance">
    <path fill="#fff" d="M43.848 0H6.152A6.152 6.152 0 0 0 0 6.152v37.696A6.152 6.152 0 0 0 6.152 50h37.696A6.152 6.152 0 0 0 50 43.848V6.152A6.152 6.152 0 0 0 43.848 0Z"/>
  </mask>
  <g mask="url(#mask0_51_13)">
    <path fill="#151923" d="M0 3.488A3.488 3.488 0 0 1 3.488 0h43.024A3.488 3.488 0 0 1 50 3.488v43.024A3.488 3.488 0 0 1 46.512 50H3.488A3.488 3.488 0 0 1 0 46.512V3.488Z"/>
    <path fill="#fff" d="M20.707 14.163c-.997.299-2.86-1.326-4.171-2.71-.315-.332-.94-.115-1.007.338-.24 1.595-.921 3.649-2.496 4.466-1.563.811-3.532-.127-4.9-1.132-.381-.28-1.014.044-.991.515.08 1.68-.06 3.838-.961 4.807-.918.987-3.005.785-4.594.393-.445-.11-.88.403-.7.824.576 1.349 1.148 3.275.908 4.932-.235 1.626-2.197 2.24-3.954 2.408-.502.047-.79.865-.44 1.227.972 1.002 1.842 2.374 1.516 3.73-.34 1.42-1.749 2.448-3.016 3.066-.435.213-.449.99-.017 1.21 1.447.736 3.033 1.937 3.033 3.427 0 1.765-3.407 2.958-5.83 3.502-.415.093-.557.648-.241.934 1.368 1.239 3.125 3.213 3.125 4.753 0 1.517-2.319 3.02-4.169 3.915-.412.2-.398.855.02 1.042 1.745.78 3.933 2.141 4.149 3.76.205 1.54-1.321 3.302-2.705 4.496-.365.315-.15 1.017.33 1.07 2.201.241 4.976 1.008 5.321 2.88.254 1.375-.167 2.62-.73 3.56-.262.438.188 1.287.697 1.255 1.951-.123 4.35.104 5.378 1.47 1.078 1.43 1.257 3.543 1.172 5.054-.025.443.517.786.908.578 1.622-.864 4.045-1.582 5.663-.16 1.278 1.125 1.88 2.558 2.127 3.73.101.479.906.76 1.257.417 1.423-1.389 3.532-2.777 5.319-1.916 1.812.872 3.065 2.68 3.735 4.022.191.384.788.427 1.02.065 1.068-1.677 2.92-3.91 4.77-4.087 1.82-.175 3.823 1.263 5.04 2.427.3.285.832.138.93-.264.468-1.927 1.446-4.639 2.868-5.136 1.288-.45 3.417.233 4.969.925.425.189.97-.275.894-.733-.23-1.386-.152-3.305 1.058-4.922 1.324-1.768 3.813-1.48 5.637-1.01.45.116.894-.426.72-.857-.602-1.494-1.1-3.665-.532-5.026.597-1.43 3.003-2.053 4.88-2.27.464-.053.678-.7.338-1.019-1.271-1.194-2.752-2.986-2.752-4.549 0-1.557 1.995-2.876 3.716-3.668.44-.202.428-.946-.013-1.142-1.718-.764-3.703-2.108-3.703-3.907 0-1.8 1.466-3.533 2.733-4.63.35-.303.185-.964-.268-1.058-2.104-.44-4.799-1.497-4.931-3.501-.112-1.687 1.095-2.806 2.31-3.45.435-.23.46-1.047.017-1.262-1.463-.71-3.09-1.795-3.287-2.991-.214-1.312 1.237-3.013 2.48-4.144.328-.298.165-.893-.27-.976-1.745-.335-4.076-1.047-4.813-2.245-.725-1.178-.087-3.14.597-4.526.192-.389-.15-.883-.58-.832-1.683.198-4.052.194-5.225-.791-1.002-.842-.93-2.473-.588-3.852.12-.484-.521-1.024-.974-.817-1.386.631-3.183 1.11-4.537.48-1.454-.678-2.08-2.669-2.3-4.291-.063-.472-.753-.701-1.079-.354-1.13 1.204-2.772 2.55-4.227 2.55-1.653 0-3.197-2.308-4.044-4.024-.18-.364-.712-.401-.93-.058-1.006 1.58-2.608 3.766-3.66 4.082Z"/>
    <path fill="#151923" fill-rule="evenodd" d="M24.798 10.71c-.487.75-1.09 1.605-1.705 2.337-.342.408-.698.79-1.049 1.096-.338.296-.727.57-1.134.693-.469.14-.95.034-1.348-.122-.41-.161-.83-.416-1.232-.704-.741-.533-1.501-1.242-2.14-1.902-.135.794-.375 1.692-.776 2.516-.437.896-1.09 1.755-2.057 2.257-1 .52-2.088.454-3.05.164-.902-.272-1.757-.758-2.455-1.255.031.824.01 1.76-.128 2.63-.144.909-.432 1.864-1.028 2.505-.654.703-1.644.912-2.54.938-.852.024-1.76-.113-2.547-.295.567 1.378 1.14 3.354.882 5.128-.162 1.117-.922 1.837-1.782 2.277-.829.423-1.825.631-2.727.723a.25.25 0 0 0-.03.092c.503.527.998 1.168 1.33 1.878.344.733.53 1.581.32 2.459-.214.888-.75 1.614-1.368 2.185-.6.555-1.306.993-1.963 1.319a.152.152 0 0 0 0 .016c.74.383 1.54.895 2.17 1.526.644.645 1.18 1.486 1.18 2.493 0 .684-.334 1.256-.769 1.704-.432.447-1.01.82-1.622 1.131-1.132.576-2.512 1.003-3.69 1.284.65.609 1.37 1.367 1.95 2.168.63.866 1.184 1.9 1.184 2.902 0 1.098-.812 2.036-1.643 2.73-.798.667-1.786 1.25-2.677 1.697.844.394 1.778.918 2.558 1.549.835.675 1.612 1.567 1.756 2.648.136 1.024-.306 2.03-.871 2.864-.534.79-1.242 1.523-1.915 2.12 1.088.133 2.32.394 3.36.862 1.086.49 2.131 1.288 2.367 2.566.29 1.573-.187 2.977-.795 4.008a.415.415 0 0 0 .05.146.41.41 0 0 0 .056.081c.994-.057 2.119-.028 3.15.197 1.045.228 2.094.68 2.754 1.557 1.193 1.584 1.388 3.816 1.32 5.365.837-.43 1.882-.83 2.955-.946 1.138-.123 2.368.068 3.37.949 1.405 1.235 2.066 2.797 2.341 4.065l.025.017a.326.326 0 0 0 .114.04c.737-.711 1.668-1.443 2.678-1.892 1.034-.46 2.238-.658 3.386-.106 1.936.933 3.25 2.785 3.97 4.167.543-.828 1.264-1.775 2.087-2.56.864-.825 1.933-1.561 3.095-1.673 1.11-.107 2.213.28 3.153.795.863.474 1.648 1.09 2.263 1.656.242-.94.597-2.043 1.067-3.001.256-.522.555-1.022.904-1.435.345-.41.771-.771 1.288-.952.835-.292 1.85-.197 2.772.012.91.207 1.836.55 2.618.892-.234-1.49-.147-3.592 1.2-5.392.817-1.091 1.984-1.52 3.13-1.622 1.072-.095 2.175.089 3.088.314a12.068 12.068 0 0 1-.7-2.6c-.136-.95-.135-1.982.22-2.834.411-.984 1.389-1.59 2.35-1.972.911-.362 1.949-.577 2.866-.696-.613-.592-1.266-1.317-1.786-2.096-.558-.837-1.017-1.816-1.017-2.803 0-1.085.687-1.981 1.453-2.65.74-.646 1.666-1.181 2.518-1.585-.858-.394-1.794-.936-2.538-1.624-.784-.724-1.433-1.683-1.433-2.858 0-1.088.44-2.106 1.007-2.966.531-.805 1.202-1.515 1.83-2.075-1.049-.233-2.248-.617-3.235-1.208-1.035-.618-1.979-1.552-2.067-2.894-.138-2.084 1.35-3.399 2.639-4.093l.002-.009a.217.217 0 0 0 .005-.06c-.738-.364-1.533-.828-2.185-1.369-.653-.54-1.273-1.25-1.413-2.105-.153-.932.29-1.88.804-2.645.48-.715 1.11-1.395 1.7-1.951-.839-.174-1.794-.43-2.654-.787-.921-.381-1.868-.93-2.359-1.727-.499-.81-.488-1.81-.322-2.685.155-.813.466-1.63.79-2.318-.827.085-1.8.121-2.729.024-.996-.104-2.052-.372-2.8-1-.691-.58-.97-1.403-1.046-2.197-.072-.77.04-1.58.212-2.297a.18.18 0 0 0-.026-.026.216.216 0 0 0-.025-.018c-.717.322-1.55.61-2.4.739-.872.132-1.812.102-2.658-.292-.935-.435-1.55-1.266-1.953-2.13-.383-.822-.605-1.738-.726-2.556-.568.594-1.261 1.222-2.006 1.717-.78.518-1.695.94-2.624.94-1.145 0-2.123-.78-2.852-1.606-.682-.773-1.263-1.718-1.692-2.55Zm-1.024-1.007c.524-.823 1.74-.712 2.154.125.408.827.974 1.773 1.616 2.501.669.758 1.289 1.13 1.798 1.13.524 0 1.16-.25 1.846-.705.674-.448 1.326-1.045 1.868-1.622.402-.428.97-.449 1.37-.317.4.132.841.483.919 1.057.104.77.301 1.598.627 2.298.328.705.753 1.208 1.272 1.45.508.237 1.143.283 1.855.176.708-.107 1.439-.36 2.094-.658.565-.258 1.126-.017 1.445.251.32.269.65.777.502 1.375-.16.647-.246 1.314-.192 1.892.054.577.24.991.55 1.252.425.357 1.14.584 2.042.679.882.092 1.84.048 2.649-.047.52-.061.948.21 1.182.547.235.337.34.83.11 1.294-.325.66-.628 1.434-.767 2.161-.142.747-.087 1.318.138 1.685.247.4.835.807 1.7 1.165.834.346 1.803.596 2.647.758.528.101.855.507.967.91.111.404.04.918-.355 1.277-.599.544-1.228 1.21-1.677 1.876-.468.696-.645 1.255-.583 1.634.056.342.347.773.923 1.25.555.46 1.273.88 1.978 1.222.56.273.724.86.716 1.273-.008.415-.192.969-.712 1.244-1.132.599-2.021 1.516-1.938 2.782.044.663.514 1.258 1.386 1.78.86.513 1.975.867 2.989 1.079.552.115.87.56.972.967.102.406.034.944-.388 1.31-.601.52-1.236 1.18-1.715 1.907-.483.732-.775 1.48-.775 2.192 0 .624.343 1.236.98 1.825.634.585 1.484 1.075 2.305 1.44.54.24.748.777.754 1.202.005.425-.19.97-.733 1.22-.829.382-1.691.877-2.334 1.439-.663.578-.972 1.12-.972 1.591 0 .576.28 1.274.78 2.022.49.734 1.138 1.44 1.75 2.015.414.39.452.939.318 1.342-.133.404-.491.823-1.056.888-.906.105-1.91.304-2.742.635-.86.341-1.385.761-1.571 1.207-.213.509-.248 1.242-.126 2.092.12.834.377 1.695.661 2.4.208.515.028 1.027-.238 1.346-.265.32-.748.6-1.31.455-.882-.227-1.87-.395-2.768-.315-.885.078-1.623.388-2.13 1.065-1.054 1.408-1.139 3.108-.927 4.386.09.54-.189 1.003-.504 1.264-.315.262-.839.462-1.37.226-.75-.335-1.625-.66-2.453-.847-.852-.194-1.545-.215-1.997-.057-.195.068-.425.232-.678.532-.25.296-.49.687-.715 1.146-.45.92-.798 2.025-1.025 2.961-.23.948-1.422 1.251-2.098.606-.578-.553-1.335-1.162-2.147-1.608-.821-.45-1.63-.696-2.341-.628-.687.066-1.468.535-2.26 1.29-.773.739-1.47 1.667-1.985 2.475-.28.44-.759.598-1.164.571a1.29 1.29 0 0 1-1.077-.7c-.642-1.286-1.805-2.929-3.411-3.702-.639-.308-1.383-.242-2.205.124-.824.366-1.639 1-2.318 1.662-.444.433-1.056.392-1.439.262-.386-.131-.875-.462-.997-1.038-.225-1.066-.768-2.348-1.903-3.345-.616-.542-1.406-.703-2.29-.608-.891.097-1.814.452-2.578.859-.469.25-.975.146-1.318-.072-.343-.218-.653-.633-.623-1.166.083-1.468-.109-3.367-1.031-4.591-.368-.49-1.033-.834-1.932-1.03-.886-.193-1.902-.221-2.84-.162-.663.042-1.106-.46-1.3-.816-.197-.362-.36-.973-.045-1.5.507-.847.855-1.918.642-3.072-.11-.594-.624-1.116-1.562-1.539-.917-.413-2.08-.654-3.144-.77-.593-.066-.951-.519-1.078-.929-.126-.41-.084-.984.365-1.372.665-.575 1.344-1.268 1.825-1.98.494-.73.711-1.375.642-1.89-.071-.538-.497-1.136-1.246-1.742-.727-.588-1.651-1.094-2.492-1.47-.507-.227-.73-.719-.738-1.144-.008-.426.195-.928.698-1.172.899-.436 1.884-1.006 2.634-1.632.79-.66 1.138-1.232 1.138-1.65 0-.538-.324-1.262-.915-2.078-.573-.789-1.317-1.556-1.979-2.156-.73-.661-.422-1.92.56-2.14 1.185-.266 2.578-.684 3.659-1.234.541-.275.968-.565 1.25-.856.28-.288.372-.528.372-.726 0-.484-.258-.988-.77-1.5-.505-.507-1.193-.952-1.88-1.301-.533-.272-.707-.829-.7-1.245.006-.416.197-.963.728-1.222.593-.29 1.198-.666 1.686-1.117.49-.453.827-.95.955-1.482.115-.478.029-.994-.225-1.536-.254-.544-.66-1.074-1.112-1.541-.433-.447-.397-1.063-.257-1.456.14-.392.504-.9 1.135-.96.836-.08 1.666-.262 2.294-.583.619-.316.957-.716 1.03-1.226.213-1.462-.297-3.24-.858-4.555-.219-.512-.044-1.023.226-1.342.27-.318.747-.573 1.288-.44.762.187 1.613.321 2.36.3.775-.022 1.287-.206 1.551-.49.304-.327.538-.936.67-1.768.127-.807.143-1.715.104-2.526-.028-.583.348-1.004.723-1.197.375-.194.926-.256 1.385.082.647.474 1.409.912 2.165 1.14.755.228 1.434.226 1.996-.066.609-.315 1.084-.891 1.441-1.625.357-.732.571-1.57.684-2.321.08-.54.482-.89.88-1.025.399-.136.943-.103 1.332.307.642.677 1.4 1.394 2.104 1.899.353.253.667.436.927.538.273.107.399.092.429.083.118-.035.324-.152.613-.405.277-.241.581-.564.897-.94.63-.752 1.264-1.665 1.758-2.44l.593.377.003.002" clip-rule="evenodd"/>
    <path fill="#151923" fill-rule="evenodd" d="M37.824 23.361v1.45h1.632v-1.966c0-.96-1-1.59-1.866-1.178l-3.138 1.494.701 1.472 2.671-1.272Zm-1.897 11.641c.173 1.39-.505 2.62-1.516 2.746-1.011.126-1.972-.899-2.145-2.289-.174-1.39.505-2.619 1.516-2.745 1.01-.127 1.971.898 2.145 2.288Zm-16.47.476c.089 1.398-.664 2.583-1.68 2.647-1.018.064-1.913-1.017-2.001-2.416-.088-1.398.665-2.583 1.681-2.647 1.017-.064 1.913 1.018 2 2.416Zm7.037 1.953c.567-.022 1.03.13 1.318.323.29.195.318.357.32.402.002.045-.014.21-.288.425-.273.214-.723.401-1.29.423-.567.021-1.03-.13-1.318-.324-.29-.194-.318-.357-.32-.401-.002-.045.014-.21.288-.425.273-.215.723-.401 1.29-.423Zm-.053-1.405c1.664-.063 3.05.867 3.096 2.077.033.875-.644 1.657-1.65 2.047.042.202.113.451.219.717.2.499.481.944.819 1.2.354.27.815.23 1.474-.176.519-.32.967-.75 1.302-1.073l.001-.001c.082-.079.158-.152.226-.214a.703.703 0 1 1 .953 1.033l-.16.152c-.323.313-.918.89-1.584 1.3-.785.484-1.98.925-3.064.098-.498-.38-.856-.908-1.105-1.418-.166.504-.42 1.045-.805 1.511-.703.854-1.817.98-2.669.895a5.06 5.06 0 0 1-1.241-.288c-.352-.132-.702-.312-.946-.537a.703.703 0 0 1 .953-1.033c.053.049.211.15.484.253.26.096.572.174.891.206.68.069 1.187-.079 1.443-.39.299-.362.503-.837.632-1.31.07-.259.113-.503.138-.708-1.307-.194-2.298-1.015-2.337-2.035-.046-1.21 1.266-2.242 2.93-2.306ZM14.194 25.662l-2.51-1.387v3.071h-1.63v-3.624a1.305 1.305 0 0 1 1.935-1.143l2.994 1.655-.789 1.428Z" clip-rule="evenodd"/>
  </g>
</svg>