<svg width="72" height="72" viewBox="0 0 72 72" fill="none" xmlns="http://www.w3.org/2000/svg">
<rect x="1" y="1" width="70" height="70" rx="35" fill="#FFF7E1" stroke="#EF9D17" stroke-width="2"/>
<path fill-rule="evenodd" clip-rule="evenodd" d="M43.6072 25.16C43.6072 29.6667 39.9349 33.32 35.4048 33.32C30.8747 33.32 27.2024 29.6667 27.2024 25.16C27.2024 20.6533 30.8747 17 35.4048 17C39.9349 17 43.6072 20.6533 43.6072 25.16ZM20.1718 51C19.5246 51 19 50.4781 19 49.8343C19 45.4818 19 43.3057 19.8277 41.6434C20.556 40.1809 21.7177 38.9921 23.1468 38.2469C24.7715 37.4 26.8982 37.4 31.1517 37.4H41.0249C45.2785 37.4 47.4051 37.4 49.0298 38.2469C50.4589 38.9921 51.6207 40.1809 52.3489 41.6434C53.1767 43.3057 53.1767 45.4818 53.1767 49.8343C53.1767 50.4781 52.652 51 52.0049 51H20.1718Z" fill="#EF9D17"/>
</svg>
