<svg width="72" height="72" viewBox="0 0 72 72" fill="none" xmlns="http://www.w3.org/2000/svg">
<rect x="1" y="1" width="70" height="70" rx="35" stroke="#1765D4" stroke-width="2"/>
<path d="M22.6562 43.852C20.1236 40.6984 18.7407 36.7761 18.7354 32.7314C18.7407 28.0216 20.6141 23.5062 23.9444 20.1759C27.2748 16.8455 31.7901 14.9722 36.4999 14.9668C41.2097 14.9722 45.7251 16.8455 49.0554 20.1759C52.3858 23.5062 54.2591 28.0216 54.2645 32.7314C54.2757 36.6264 52.9929 40.4148 50.6177 43.5018C49.5414 43.0748 48.4396 42.7154 47.3186 42.4258C49.7119 39.7639 51.0361 36.311 51.0364 32.7314C51.0317 28.8773 49.4983 25.1825 46.7725 22.4577C44.0468 19.7329 40.3515 18.2008 36.4974 18.1974C32.6444 18.2021 28.9506 19.735 26.2264 22.4597C23.5022 25.1844 21.97 28.8784 21.966 32.7314C21.9634 36.4246 23.3713 39.9795 25.9021 42.6694C24.7961 42.9915 23.7126 43.3866 22.6588 43.852H22.6562ZM41.408 40.8777C41.1956 40.8776 40.9853 40.8354 40.7892 40.7535C40.5932 40.6716 40.4154 40.5517 40.266 40.4006L34.8529 34.9849C34.5526 34.6835 34.3831 34.276 34.3809 33.8505V23.8009C34.3809 23.3726 34.5508 22.9618 34.8535 22.6587C35.1561 22.3556 35.5666 22.185 35.9949 22.1843C36.4232 22.185 36.8337 22.3556 37.1364 22.6587C37.439 22.9618 37.6089 23.3726 37.6089 23.8009V33.1907L42.5526 38.1318C42.7037 38.2815 42.8236 38.4598 42.905 38.6563C42.9865 38.8528 43.028 39.0636 43.0271 39.2763C43.027 39.4874 42.9849 39.6964 42.9035 39.8911C42.822 40.0858 42.7027 40.2624 42.5526 40.4107C42.4023 40.5606 42.2238 40.6791 42.0273 40.7593C41.8307 40.8395 41.6202 40.8797 41.408 40.8777Z" fill="#1765D4"/>
<path d="M52.8155 52.1202L43.3622 45.4204V49.3616H30.7494V45.4204L21.291 52.1202L30.7494 58.0333V54.0921H43.3622V58.0333L52.8155 52.1202Z" fill="#1765D4"/>
</svg>
