<svg width="72" height="72" viewBox="0 0 72 72" fill="none" xmlns="http://www.w3.org/2000/svg">
<rect x="1" y="0.999878" width="70" height="70" rx="35" stroke="#C42220" stroke-width="2"/>
<g clip-path="url(#clip0_635_185)">
<path d="M33.5941 29.3942L37.2275 50.4709C37.2275 50.4709 39.9126 47.7059 42.133 45.7749L47.008 52.3029C47.2061 52.5695 47.6326 52.5847 47.9602 52.3448L50.0435 50.8213C50.371 50.5814 50.4776 50.1701 50.2796 49.9073L45.5379 43.5621C48.0173 42.5643 52.0963 41.4255 52.0963 41.4255L33.5941 29.3942ZM27.7251 39.1289L22.3169 43.0861C21.498 43.684 21.3495 44.838 21.997 45.6911C22.6444 46.5443 23.8403 46.7652 24.6554 46.171L30.0674 42.2139C30.9053 41.6007 31.0424 40.401 30.3949 39.5517C29.7513 38.6948 28.563 38.5158 27.7251 39.1289ZM53.2731 22.8205C52.6257 21.9712 51.4564 21.777 50.6033 22.4016L45.2256 26.3359C44.3725 26.9605 44.2239 28.1145 44.8714 28.9676C45.5188 29.8207 46.7147 30.0416 47.5679 29.417L52.9418 25.4866C53.7949 24.8619 53.9206 23.6737 53.2731 22.8205ZM28.1631 18.753C27.527 17.9189 26.3616 17.7285 25.5047 18.3531C24.7049 18.9396 24.5373 20.105 25.1733 20.9391L29.378 26.4692C30.0141 27.3071 31.1985 27.4823 31.9983 26.8957C32.8515 26.2711 33.0038 25.1171 32.3678 24.283L28.1631 18.753ZM38.7776 25.3228C39.8212 25.4904 40.7771 24.7896 40.9143 23.7613L41.756 17.0772C41.8893 16.0489 41.158 15.0853 40.103 14.8987C39.0595 14.7311 38.1035 15.4319 37.9664 16.4602L37.1209 23.1481C36.9914 24.1764 37.7227 25.1362 38.7776 25.3228ZM28.5782 32.78C28.6811 31.7479 27.9498 30.7881 26.9253 30.6015L20.1498 29.4894C19.072 29.3485 18.1312 30.034 18.0132 31.0509C17.857 32.1249 18.5883 33.0847 19.6661 33.2294L26.4378 34.3415C27.4661 34.5205 28.4106 33.835 28.5782 32.78Z" fill="#C42220"/>
</g>
<defs>
<clipPath id="clip0_635_185">
<rect width="39" height="39" fill="white" transform="translate(17 13.9999)"/>
</clipPath>
</defs>
</svg>
