<svg width="72" height="72" viewBox="0 0 72 72" fill="none" xmlns="http://www.w3.org/2000/svg">
<g id="Group 5">
<rect id="Rectangle 13" x="1" y="1.00012" width="70" height="70" rx="35" fill="#FFF7E1" stroke="#EF9D17" stroke-width="2"/>
<g id="Group">
<path id="Vector" fill-rule="evenodd" clip-rule="evenodd" d="M43.6072 25.1601C43.6072 29.6668 39.9349 33.3201 35.4048 33.3201C30.8747 33.3201 27.2024 29.6668 27.2024 25.1601C27.2024 20.6535 30.8747 17.0001 35.4048 17.0001C39.9349 17.0001 43.6072 20.6535 43.6072 25.1601ZM20.1718 51.0001C19.5246 51.0001 19 50.4782 19 49.8344C19 45.4819 19 43.3058 19.8277 41.6435C20.556 40.181 21.7177 38.9922 23.1468 38.2471C24.7715 37.4001 26.8982 37.4001 31.1517 37.4001H41.0249C45.2785 37.4001 47.4051 37.4001 49.0298 38.2471C50.4589 38.9922 51.6207 40.181 52.3489 41.6435C53.1767 43.3058 53.1767 45.4819 53.1767 49.8344C53.1767 50.4782 52.652 51.0001 52.0049 51.0001H20.1718Z" fill="#EF9D17"/>
</g>
</g>
</svg>
