<svg width="39" height="39" viewBox="0 0 39 39" fill="none" xmlns="http://www.w3.org/2000/svg">
<g id="Frame">
<path id="Vector" d="M16.5941 15.3943L20.2275 36.4711C20.2275 36.4711 22.9126 33.706 25.133 31.7751L30.008 38.303C30.2061 38.5696 30.6326 38.5848 30.9602 38.3449L33.0435 36.8214C33.371 36.5815 33.4776 36.1702 33.2796 35.9074L28.5379 29.5623C31.0173 28.5644 35.0963 27.4256 35.0963 27.4256L16.5941 15.3943ZM10.7251 25.1291L5.31689 29.0862C4.49804 29.6841 4.34951 30.8381 4.99697 31.6913C5.64443 32.5444 6.84033 32.7653 7.65537 32.1712L13.0674 28.214C13.9053 27.6008 14.0424 26.4011 13.3949 25.5518C12.7513 24.6949 11.563 24.5159 10.7251 25.1291ZM36.2731 8.82066C35.6257 7.97135 34.4564 7.77711 33.6033 8.40172L28.2256 12.336C27.3725 12.9606 27.2239 14.1146 27.8714 14.9677C28.5188 15.8209 29.7147 16.0418 30.5679 15.4171L35.9418 11.4867C36.7949 10.8621 36.9206 9.67379 36.2731 8.82066ZM11.1631 4.75308C10.527 3.919 9.36162 3.72857 8.50468 4.35318C7.70488 4.93971 7.5373 6.10513 8.17334 6.93922L12.378 12.4693C13.0141 13.3072 14.1985 13.4824 14.9983 12.8959C15.8515 12.2712 16.0038 11.1172 15.3678 10.2832L11.1631 4.75308ZM21.7776 11.3229C22.8212 11.4905 23.7771 10.7897 23.9143 9.76138L24.756 3.0773C24.8893 2.04898 24.158 1.08541 23.103 0.898787C22.0595 0.731209 21.1035 1.43199 20.9664 2.46031L20.1209 9.1482C19.9914 10.1765 20.7227 11.1363 21.7776 11.3229ZM11.5782 18.7801C11.6811 17.748 10.9498 16.7882 9.92529 16.6016L3.1498 15.4895C2.07197 15.3486 1.13125 16.0341 1.01318 17.051C0.857027 18.1251 1.58828 19.0848 2.66611 19.2295L9.43779 20.3417C10.4661 20.5207 11.4106 19.8351 11.5782 18.7801Z" fill="#C42220"/>
</g>
</svg>
