<svg width="49" height="49" viewBox="0 0 49 49" fill="none" xmlns="http://www.w3.org/2000/svg">
<g id="Frame">
<path id="Vector" d="M10.6562 31.8521C8.1236 28.6985 6.7407 24.7762 6.73535 20.7315C6.74073 16.0217 8.61407 11.5063 11.9444 8.17598C15.2748 4.84564 19.7901 2.97229 24.4999 2.96692C29.2097 2.97229 33.7251 4.84564 37.0554 8.17598C40.3858 11.5063 42.2591 16.0217 42.2645 20.7315C42.2757 24.6265 40.9929 28.4149 38.6177 31.5019C37.5414 31.0749 36.4396 30.7156 35.3186 30.4259C37.7119 27.7641 39.0361 24.3111 39.0364 20.7315C39.0317 16.8774 37.4983 13.1826 34.7725 10.4578C32.0468 7.73306 28.3515 6.20089 24.4974 6.19753C20.6444 6.20224 16.9506 7.73508 14.2264 10.4598C11.5022 13.1845 9.97 16.8785 9.96597 20.7315C9.96338 24.4248 11.3713 27.9796 13.9021 30.6695C12.7961 30.9917 11.7126 31.3867 10.6588 31.8521H10.6562ZM29.408 28.8778C29.1956 28.8778 28.9853 28.8356 28.7892 28.7537C28.5932 28.6718 28.4154 28.5518 28.266 28.4007L22.8529 22.9851C22.5526 22.6836 22.3831 22.2761 22.3809 21.8507V11.801C22.3809 11.3727 22.5508 10.9619 22.8535 10.6588C23.1561 10.3557 23.5666 10.1851 23.9949 10.1844C24.4232 10.1851 24.8337 10.3557 25.1364 10.6588C25.439 10.9619 25.6089 11.3727 25.6089 11.801V21.1908L30.5526 26.1319C30.7037 26.2816 30.8236 26.4599 30.905 26.6564C30.9865 26.853 31.028 27.0637 31.0271 27.2765C31.027 27.4875 30.9849 27.6965 30.9035 27.8912C30.822 28.0859 30.7027 28.2625 30.5526 28.4109C30.4023 28.5608 30.2238 28.6793 30.0273 28.7594C29.8307 28.8396 29.6202 28.8798 29.408 28.8778Z" fill="#1765D4"/>
<path id="Vector_2" d="M40.8155 40.1203L31.3622 33.4205V37.3617H18.7494V33.4205L9.29102 40.1203L18.7494 46.0334V42.0922H31.3622V46.0334L40.8155 40.1203Z" fill="#1765D4"/>
</g>
</svg>
