<svg viewBox="0 0 24 24" fill="none" xmlns="http://www.w3.org/2000/svg">
  <rect width="7" height="7" rx="2" transform="matrix(-1 0 0 1 10 3)" stroke="currentColor" stroke-width="1.5" />
  <rect width="3" height="3" rx="1" transform="matrix(-1 0 0 1 8 5)" fill="currentColor" />
  <rect width="3" height="3" rx="1" transform="matrix(-1 0 0 1 8 16)" fill="currentColor" />
  <rect width="3" height="3" rx="1" transform="matrix(-1 0 0 1 17 18)" fill="currentColor" />
  <rect width="3" height="3" rx="1" transform="matrix(-1 0 0 1 19 5)" fill="currentColor" />
  <rect width="7" height="7" rx="2" transform="matrix(-1 0 0 1 10 14)" stroke="currentColor" stroke-width="1.5" />
  <rect width="7" height="7" rx="2" transform="matrix(-1 0 0 1 21 3)" stroke="currentColor" stroke-width="1.5" />
  <path d="M15 14H19C20.1046 14 21 14.8954 21 16V20" stroke="currentColor" stroke-width="1.5" stroke-linecap="round" />
</svg>