<svg width="28" height="28" viewBox="0 0 28 28" fill="none" xmlns="http://www.w3.org/2000/svg">
<g id="Group 1">
<g id="Group 18">
<circle id="Ellipse 1" cx="14" cy="14" r="13.5" stroke="#D5D5D5"/>
<path id="Vector" d="M18.782 7.99058C18.782 7.99058 20.2394 7.42326 20.1178 8.80245C20.0768 9.37101 19.7131 11.3597 19.4288 13.5098L18.458 19.8807C18.458 19.8807 18.3773 20.8142 17.6485 20.9769C16.9198 21.1382 15.8273 20.4083 15.6249 20.2469C15.4635 20.1253 12.5896 18.2979 11.5778 17.4054C11.2935 17.162 10.9695 16.6754 11.6175 16.1068L15.867 12.0487C16.3537 11.5621 16.8391 10.4262 14.8155 11.8054L9.14823 15.6612C9.14823 15.6612 8.50143 16.0671 7.28604 15.7009L4.65787 14.8903C4.65787 14.8903 3.6858 14.282 5.34564 13.6725C9.3928 11.7644 14.3711 9.81668 18.7832 7.99058H18.782Z" fill="black"/>
</g>
</g>
</svg>
