<svg width="28" height="28" viewBox="0 0 28 28" fill="none" xmlns="http://www.w3.org/2000/svg">
<circle cx="14" cy="14" r="13.5" stroke="#D5D5D5"/>
<path d="M10.9836 11.4671H17.7533C17.8815 11.4671 18.0045 11.4162 18.0952 11.3255C18.1859 11.2348 18.2368 11.1118 18.2368 10.9836C18.2368 10.8553 18.1859 10.7323 18.0952 10.6416C18.0045 10.5509 17.8815 10.5 17.7533 10.5H10.9836C10.8553 10.5 10.7323 10.5509 10.6416 10.6416C10.5509 10.7323 10.5 10.8553 10.5 10.9836C10.5 11.1118 10.5509 11.2348 10.6416 11.3255C10.7323 11.4162 10.8553 11.4671 10.9836 11.4671ZM10.9836 14.852H17.7533C17.8815 14.852 18.0045 14.801 18.0952 14.7103C18.1859 14.6197 18.2368 14.4967 18.2368 14.3684C18.2368 14.2402 18.1859 14.1172 18.0952 14.0265C18.0045 13.9358 17.8815 13.8849 17.7533 13.8849H10.9836C10.8553 13.8849 10.7323 13.9358 10.6416 14.0265C10.5509 14.1172 10.5 14.2402 10.5 14.3684C10.5 14.4967 10.5509 14.6197 10.6416 14.7103C10.7323 14.801 10.8553 14.852 10.9836 14.852ZM14.852 17.2697H10.9836C10.8553 17.2697 10.7323 17.3207 10.6416 17.4114C10.5509 17.502 10.5 17.625 10.5 17.7533C10.5 17.8815 10.5509 18.0045 10.6416 18.0952C10.7323 18.1859 10.8553 18.2368 10.9836 18.2368H14.852C14.9802 18.2368 15.1032 18.1859 15.1939 18.0952C15.2846 18.0045 15.3355 17.8815 15.3355 17.7533C15.3355 17.625 15.2846 17.502 15.1939 17.4114C15.1032 17.3207 14.9802 17.2697 14.852 17.2697Z" fill="black"/>
<path d="M20.1707 8.64027C20.1707 7.79937 19.499 7.11514 18.6736 7.11514H10.062C9.23708 7.11514 8.56543 7.79937 8.56543 8.64027V20.0966C8.56543 20.9375 9.23708 21.6217 10.062 21.6217H16.6354C16.6591 21.6217 16.6794 21.6116 16.7022 21.6082C16.8376 21.6324 16.9812 21.6043 17.0948 21.5095L19.9961 19.0918C20.0547 19.0417 20.1002 18.9781 20.1286 18.9065C20.1571 18.8348 20.1677 18.7574 20.1596 18.6808C20.162 18.6629 20.1707 18.6474 20.1707 18.629V8.64027ZM9.53253 20.0966V8.64027C9.53253 8.33273 9.76996 8.08225 10.062 8.08225H18.6736C18.9662 8.08225 19.2036 8.33273 19.2036 8.64027V17.7533H17.7529C17.3682 17.7533 16.9992 17.9061 16.7272 18.1782C16.4551 18.4502 16.3023 18.8192 16.3023 19.204V20.6546H10.062C9.76996 20.6546 9.53253 20.4041 9.53253 20.0966ZM18.9318 18.7204L17.2694 20.1058V19.204C17.2694 19.0757 17.3203 18.9527 17.411 18.862C17.5017 18.7714 17.6247 18.7204 17.7529 18.7204H18.9318Z" fill="black"/>
</svg>
