<svg xmlns="http://www.w3.org/2000/svg" fill="none" viewBox="0 0 33 33">
  <path fill="#EFF0EB" d="M16.8 32.5c8.836 0 16-7.163 16-16s-7.164-16-16-16C7.963.5.8 7.663.8 16.5s7.163 16 16 16Z"/>
  <path fill="#000" fill-opacity=".602" d="M17.298 4.5v8.87l7.497 3.35L17.298 4.5Z"/>
  <path fill="#0B0B0B" stroke="#0B0B0B" stroke-width="1.495" d="m16.55 12.885-4.85 2.167 4.85-7.904v5.737Z"/>
  <path fill="#000" fill-opacity=".602" d="M17.298 22.467v6.027L24.8 18.115l-7.502 4.352Z"/>
  <path fill="#0B0B0B" stroke="#0B0B0B" stroke-width="1.495" d="m12.463 20.525 4.087 2.372v3.286l-4.087-5.658Z"/>
  <path fill="#000" fill-opacity=".2" d="m17.298 21.074 7.497-4.353-7.497-3.348v7.701Z"/>
  <path fill="#000" fill-opacity=".602" d="m9.8 16.721 7.498 4.353v-7.701L9.8 16.721Z"/>
</svg>