<svg width="550" height="335" viewBox="0 0 550 335" fill="none" xmlns="http://www.w3.org/2000/svg">
<g filter="url(#filter0_d_4999_419)">
<rect x="4" width="542" height="327" rx="20" fill="white"/>
<rect x="4.5" y="0.5" width="541" height="326" rx="19.5" stroke="#D8D8D8"/>
</g>
<path d="M45.472 26.8C46.5173 26.8 47.4773 27.0507 48.352 27.552C49.2373 28.0427 49.936 28.72 50.448 29.584C50.96 30.4373 51.216 31.3867 51.216 32.432C51.216 33.4773 50.96 34.4267 50.448 35.28C49.936 36.1227 49.2373 36.7893 48.352 37.28C47.4773 37.76 46.5173 38 45.472 38H41.2V26.8H45.472ZM45.472 36.32C46.1973 36.32 46.864 36.1493 47.472 35.808C48.08 35.4667 48.56 34.9973 48.912 34.4C49.264 33.8027 49.44 33.1413 49.44 32.416C49.44 31.6907 49.264 31.0293 48.912 30.432C48.56 29.824 48.08 29.3493 47.472 29.008C46.864 28.656 46.1973 28.48 45.472 28.48H42.976V36.32H45.472ZM59.0509 30H60.7309V38H59.0509V37.024C58.6775 37.3973 58.2455 37.6907 57.7549 37.904C57.2749 38.1067 56.7735 38.208 56.2509 38.208C55.4509 38.208 54.7469 38.0267 54.1389 37.664C53.5309 37.2907 53.0562 36.7893 52.7149 36.16C52.3842 35.52 52.2189 34.8053 52.2189 34.016C52.2189 33.2267 52.3842 32.512 52.7149 31.872C53.0562 31.232 53.5309 30.7307 54.1389 30.368C54.7469 29.9947 55.4509 29.808 56.2509 29.808C56.7735 29.808 57.2749 29.9147 57.7549 30.128C58.2455 30.3307 58.6775 30.6187 59.0509 30.992V30ZM56.4429 36.592C56.9229 36.592 57.3602 36.48 57.7549 36.256C58.1602 36.032 58.4749 35.7227 58.6989 35.328C58.9335 34.9333 59.0509 34.4907 59.0509 34C59.0509 33.5093 58.9335 33.072 58.6989 32.688C58.4749 32.2933 58.1602 31.9893 57.7549 31.776C57.3602 31.552 56.9229 31.44 56.4429 31.44C55.9629 31.44 55.5255 31.552 55.1309 31.776C54.7469 31.9893 54.4429 32.2933 54.2189 32.688C54.0055 33.0827 53.8989 33.5253 53.8989 34.016C53.8989 34.5067 54.0055 34.9493 54.2189 35.344C54.4429 35.7387 54.7469 36.048 55.1309 36.272C55.5255 36.4853 55.9629 36.592 56.4429 36.592ZM63.7485 28.416C63.4285 28.416 63.1725 28.3307 62.9805 28.16C62.7992 27.9787 62.7085 27.7333 62.7085 27.424C62.7085 27.1147 62.7992 26.8747 62.9805 26.704C63.1725 26.5227 63.4285 26.432 63.7485 26.432C64.0685 26.432 64.3192 26.5227 64.5005 26.704C64.6925 26.8747 64.7885 27.1147 64.7885 27.424C64.7885 27.7333 64.6925 27.9787 64.5005 28.16C64.3192 28.3307 64.0685 28.416 63.7485 28.416ZM62.9005 38V30H64.5805V38H62.9005ZM68.3461 36.016C68.3461 36.1973 68.3835 36.3253 68.4581 36.4C68.5435 36.464 68.6768 36.496 68.8581 36.496C68.9968 36.496 69.1621 36.48 69.3541 36.448V38C68.8848 38.064 68.5541 38.096 68.3621 38.096C67.8181 38.096 67.3968 37.952 67.0981 37.664C66.8101 37.376 66.6661 36.864 66.6661 36.128V26.8H68.3461V36.016ZM76.0276 30H77.8036L74.8756 38.16C74.4703 39.1947 73.921 39.9787 73.2276 40.512C72.5343 41.0453 71.729 41.2747 70.8116 41.2V39.584C70.865 39.5947 70.945 39.6 71.0516 39.6C71.9903 39.6 72.7156 38.9973 73.2276 37.792L69.6436 30H71.4516L74.0276 35.552L76.0276 30ZM92.4953 38H90.5913L89.6793 35.584H85.0233L84.1113 38H82.1913L86.3833 26.8H88.3033L92.4953 38ZM87.3593 29.344L85.6473 33.904H89.0553L87.3593 29.344ZM100.302 36.448C99.9178 36.992 99.4271 37.424 98.8298 37.744C98.2324 38.0533 97.5871 38.208 96.8938 38.208C96.1364 38.208 95.4324 38.0213 94.7818 37.648C94.1418 37.264 93.6351 36.752 93.2618 36.112C92.8884 35.4613 92.7018 34.7573 92.7018 34C92.7018 33.2427 92.8884 32.544 93.2618 31.904C93.6351 31.264 94.1418 30.7573 94.7818 30.384C95.4324 30 96.1364 29.808 96.8938 29.808C97.5764 29.808 98.2111 29.9627 98.7978 30.272C99.3951 30.5813 99.8911 31.008 100.286 31.552L98.9098 32.48C98.6538 32.16 98.3498 31.9147 97.9978 31.744C97.6564 31.5733 97.2884 31.488 96.8938 31.488C96.4351 31.488 96.0138 31.6 95.6298 31.824C95.2458 32.048 94.9418 32.352 94.7178 32.736C94.4938 33.12 94.3818 33.5413 94.3818 34C94.3818 34.4587 94.4938 34.88 94.7178 35.264C94.9418 35.648 95.2458 35.9573 95.6298 36.192C96.0138 36.416 96.4351 36.528 96.8938 36.528C97.2884 36.528 97.6564 36.4427 97.9978 36.272C98.3498 36.0907 98.6538 35.8453 98.9098 35.536L100.302 36.448ZM104.164 35.376C104.164 35.8027 104.249 36.096 104.42 36.256C104.601 36.416 104.889 36.496 105.284 36.496C105.508 36.496 105.764 36.48 106.052 36.448V38C105.572 38.0533 105.166 38.08 104.836 38.08C104.036 38.08 103.444 37.8933 103.06 37.52C102.676 37.136 102.484 36.4587 102.484 35.488V31.52H100.836V30H102.484V27.92L104.164 27.344V30H106.02V31.52H104.164V35.376ZM108.545 28.416C108.225 28.416 107.969 28.3307 107.777 28.16C107.596 27.9787 107.505 27.7333 107.505 27.424C107.505 27.1147 107.596 26.8747 107.777 26.704C107.969 26.5227 108.225 26.432 108.545 26.432C108.865 26.432 109.116 26.5227 109.297 26.704C109.489 26.8747 109.585 27.1147 109.585 27.424C109.585 27.7333 109.489 27.9787 109.297 28.16C109.116 28.3307 108.865 28.416 108.545 28.416ZM107.697 38V30H109.377V38H107.697ZM114.599 36.016L116.903 30H118.695L115.623 38H113.559L110.503 30H112.279L114.599 36.016ZM123.128 29.792C123.907 29.792 124.6 29.984 125.208 30.368C125.816 30.7413 126.291 31.2533 126.632 31.904C126.973 32.544 127.144 33.248 127.144 34.016C127.144 34.144 127.123 34.3467 127.08 34.624H120.616C120.755 35.264 121.053 35.776 121.512 36.16C121.981 36.544 122.573 36.736 123.288 36.736C123.725 36.736 124.141 36.64 124.536 36.448C124.941 36.256 125.24 36.0053 125.432 35.696L126.744 36.464C126.381 37.0187 125.901 37.4507 125.304 37.76C124.707 38.0587 124.024 38.208 123.256 38.208C122.403 38.208 121.645 38.0267 120.984 37.664C120.333 37.3013 119.827 36.8 119.464 36.16C119.112 35.52 118.936 34.8 118.936 34C118.936 33.2107 119.112 32.496 119.464 31.856C119.827 31.216 120.323 30.7147 120.952 30.352C121.592 29.9787 122.317 29.792 123.128 29.792ZM125.544 33.296C125.459 32.6667 125.197 32.1707 124.76 31.808C124.333 31.4453 123.789 31.264 123.128 31.264C122.669 31.264 122.248 31.36 121.864 31.552C121.48 31.7333 121.176 31.984 120.952 32.304C120.728 32.6133 120.611 32.944 120.6 33.296H125.544ZM139.573 26.8H141.349V34.208C141.349 34.9867 141.167 35.68 140.805 36.288C140.442 36.896 139.935 37.3707 139.285 37.712C138.645 38.0427 137.919 38.208 137.109 38.208C136.298 38.208 135.573 38.0427 134.933 37.712C134.293 37.3707 133.791 36.896 133.429 36.288C133.077 35.68 132.901 34.9867 132.901 34.208V26.8H134.677V34.208C134.677 34.88 134.901 35.4187 135.349 35.824C135.807 36.2293 136.394 36.432 137.109 36.432C137.866 36.432 138.463 36.2347 138.901 35.84C139.349 35.4347 139.573 34.8907 139.573 34.208V26.8ZM144.621 32.208C144.621 32.4747 144.754 32.672 145.021 32.8C145.298 32.9173 145.741 33.0507 146.349 33.2C146.968 33.3387 147.48 33.488 147.885 33.648C148.29 33.7973 148.637 34.0373 148.925 34.368C149.224 34.6987 149.373 35.1467 149.373 35.712C149.373 36.224 149.224 36.672 148.925 37.056C148.626 37.4293 148.221 37.7173 147.709 37.92C147.208 38.112 146.653 38.208 146.045 38.208C145.224 38.208 144.52 38.048 143.933 37.728C143.346 37.3973 142.92 36.9387 142.653 36.352L144.029 35.632C144.189 36.0373 144.44 36.3413 144.781 36.544C145.133 36.736 145.554 36.832 146.045 36.832C146.504 36.832 146.898 36.736 147.229 36.544C147.57 36.352 147.741 36.08 147.741 35.728C147.741 35.4187 147.586 35.1947 147.277 35.056C146.978 34.9067 146.504 34.752 145.853 34.592C145.224 34.432 144.717 34.2827 144.333 34.144C143.96 33.9947 143.634 33.7707 143.357 33.472C143.08 33.1627 142.941 32.7573 142.941 32.256C142.941 31.7653 143.08 31.3333 143.357 30.96C143.634 30.5867 144.008 30.2987 144.477 30.096C144.946 29.8933 145.469 29.792 146.045 29.792C146.728 29.792 147.336 29.9413 147.869 30.24C148.413 30.528 148.829 30.9333 149.117 31.456L147.741 32.144C147.442 31.4933 146.877 31.168 146.045 31.168C145.608 31.168 145.261 31.264 145.005 31.456C144.749 31.6373 144.621 31.888 144.621 32.208ZM154.425 29.792C155.204 29.792 155.897 29.984 156.505 30.368C157.113 30.7413 157.588 31.2533 157.929 31.904C158.27 32.544 158.441 33.248 158.441 34.016C158.441 34.144 158.42 34.3467 158.377 34.624H151.913C152.052 35.264 152.35 35.776 152.809 36.16C153.278 36.544 153.87 36.736 154.585 36.736C155.022 36.736 155.438 36.64 155.833 36.448C156.238 36.256 156.537 36.0053 156.729 35.696L158.041 36.464C157.678 37.0187 157.198 37.4507 156.601 37.76C156.004 38.0587 155.321 38.208 154.553 38.208C153.7 38.208 152.942 38.0267 152.281 37.664C151.63 37.3013 151.124 36.8 150.761 36.16C150.409 35.52 150.233 34.8 150.233 34C150.233 33.2107 150.409 32.496 150.761 31.856C151.124 31.216 151.62 30.7147 152.249 30.352C152.889 29.9787 153.614 29.792 154.425 29.792ZM156.841 33.296C156.756 32.6667 156.494 32.1707 156.057 31.808C155.63 31.4453 155.086 31.264 154.425 31.264C153.966 31.264 153.545 31.36 153.161 31.552C152.777 31.7333 152.473 31.984 152.249 32.304C152.025 32.6133 151.908 32.944 151.897 33.296H156.841ZM163.984 29.824C164.101 29.824 164.192 29.8293 164.256 29.84L164.128 31.44C164.01 31.408 163.898 31.392 163.792 31.392C163.13 31.392 162.576 31.5947 162.128 32C161.68 32.3947 161.456 32.9547 161.456 33.68V38H159.776V30H161.456V31.36C161.637 30.9333 161.946 30.5707 162.384 30.272C162.832 29.9733 163.365 29.824 163.984 29.824ZM166.668 32.208C166.668 32.4747 166.801 32.672 167.068 32.8C167.345 32.9173 167.788 33.0507 168.396 33.2C169.015 33.3387 169.527 33.488 169.932 33.648C170.337 33.7973 170.684 34.0373 170.972 34.368C171.271 34.6987 171.42 35.1467 171.42 35.712C171.42 36.224 171.271 36.672 170.972 37.056C170.673 37.4293 170.268 37.7173 169.756 37.92C169.255 38.112 168.7 38.208 168.092 38.208C167.271 38.208 166.567 38.048 165.98 37.728C165.393 37.3973 164.967 36.9387 164.7 36.352L166.076 35.632C166.236 36.0373 166.487 36.3413 166.828 36.544C167.18 36.736 167.601 36.832 168.092 36.832C168.551 36.832 168.945 36.736 169.276 36.544C169.617 36.352 169.788 36.08 169.788 35.728C169.788 35.4187 169.633 35.1947 169.324 35.056C169.025 34.9067 168.551 34.752 167.9 34.592C167.271 34.432 166.764 34.2827 166.38 34.144C166.007 33.9947 165.681 33.7707 165.404 33.472C165.127 33.1627 164.988 32.7573 164.988 32.256C164.988 31.7653 165.127 31.3333 165.404 30.96C165.681 30.5867 166.055 30.2987 166.524 30.096C166.993 29.8933 167.516 29.792 168.092 29.792C168.775 29.792 169.383 29.9413 169.916 30.24C170.46 30.528 170.876 30.9333 171.164 31.456L169.788 32.144C169.489 31.4933 168.924 31.168 168.092 31.168C167.655 31.168 167.308 31.264 167.052 31.456C166.796 31.6373 166.668 31.888 166.668 32.208Z" fill="black"/>
<line x1="34.5" y1="77" x2="34.5" y2="282" stroke="#DFDFDF" stroke-dasharray="6 6"/>
<line x1="113.5" y1="77" x2="113.5" y2="282" stroke="#DFDFDF" stroke-dasharray="6 6"/>
<line x1="192.5" y1="77" x2="192.5" y2="282" stroke="#DFDFDF" stroke-dasharray="6 6"/>
<line x1="271.5" y1="77" x2="271.5" y2="282" stroke="#DFDFDF" stroke-dasharray="6 6"/>
<line x1="350.5" y1="77" x2="350.5" y2="282" stroke="#DFDFDF" stroke-dasharray="6 6"/>
<line x1="429.5" y1="77" x2="429.5" y2="282" stroke="#DFDFDF" stroke-dasharray="6 6"/>
<line x1="508.5" y1="77" x2="508.5" y2="282" stroke="#DFDFDF" stroke-dasharray="6 6"/>
<circle cx="34" cy="191" r="4" fill="#00C44A"/>
<path d="M34 190.5L113.5 176L187 164L271.5 137L350.5 125.5L429.5 102L508 84.5" stroke="#00C44A" stroke-width="2"/>
<circle cx="113" cy="176" r="4" fill="#00C44A"/>
<circle cx="508" cy="85" r="4" fill="#00C44A"/>
<circle cx="429" cy="102" r="4" fill="#00C44A"/>
<circle cx="350" cy="125" r="4" fill="#00C44A"/>
<circle cx="271" cy="137" r="4" fill="#00C44A"/>
<circle cx="192" cy="162" r="4" fill="#00C44A"/>
<circle cx="29.5" cy="32.5" r="4.5" fill="#00C44A"/>
<rect x="25" y="63" width="101" height="234" fill="url(#paint0_linear_4999_419)"/>
<rect x="530" y="297" width="101" height="234" transform="rotate(-180 530 297)" fill="url(#paint1_linear_4999_419)"/>
<defs>
<filter id="filter0_d_4999_419" x="0" y="0" width="550" height="335" filterUnits="userSpaceOnUse" color-interpolation-filters="sRGB">
<feFlood flood-opacity="0" result="BackgroundImageFix"/>
<feColorMatrix in="SourceAlpha" type="matrix" values="0 0 0 0 0 0 0 0 0 0 0 0 0 0 0 0 0 0 127 0" result="hardAlpha"/>
<feOffset dy="4"/>
<feGaussianBlur stdDeviation="2"/>
<feComposite in2="hardAlpha" operator="out"/>
<feColorMatrix type="matrix" values="0 0 0 0 0 0 0 0 0 0.768627 0 0 0 0 0.290196 0 0 0 0.09 0"/>
<feBlend mode="normal" in2="BackgroundImageFix" result="effect1_dropShadow_4999_419"/>
<feBlend mode="normal" in="SourceGraphic" in2="effect1_dropShadow_4999_419" result="shape"/>
</filter>
<linearGradient id="paint0_linear_4999_419" x1="126" y1="180" x2="25" y2="180" gradientUnits="userSpaceOnUse">
<stop stop-color="white" stop-opacity="0"/>
<stop offset="1" stop-color="white"/>
</linearGradient>
<linearGradient id="paint1_linear_4999_419" x1="631" y1="414" x2="530" y2="414" gradientUnits="userSpaceOnUse">
<stop stop-color="white" stop-opacity="0"/>
<stop offset="1" stop-color="white"/>
</linearGradient>
</defs>
</svg>
