<svg width="152" height="46" viewBox="0 0 152 46" fill="none" xmlns="http://www.w3.org/2000/svg">
<path d="M143.841 43.5053V26H147.521V43.5053H143.841Z" fill="white"/>
<path d="M122.296 43.694C120.928 43.694 119.709 43.4188 118.639 42.8683C117.57 42.3021 116.728 41.5235 116.115 40.5327C115.517 39.5418 115.218 38.4173 115.218 37.159C115.218 35.885 115.517 34.7605 116.115 33.7854C116.728 32.7945 117.57 32.0238 118.639 31.4733C119.709 30.9071 120.928 30.624 122.296 30.624C123.633 30.624 124.797 30.9071 125.787 31.4733C126.778 32.0238 127.51 32.8181 127.982 33.8561L125.127 35.3896C124.797 34.7919 124.38 34.3516 123.877 34.0685C123.389 33.7854 122.854 33.6438 122.272 33.6438C121.643 33.6438 121.077 33.7854 120.574 34.0685C120.07 34.3516 119.669 34.7526 119.37 35.2717C119.087 35.7907 118.946 36.4198 118.946 37.159C118.946 37.8982 119.087 38.5273 119.37 39.0464C119.669 39.5654 120.07 39.9665 120.574 40.2496C121.077 40.5327 121.643 40.6742 122.272 40.6742C122.854 40.6742 123.389 40.5405 123.877 40.2732C124.38 39.9901 124.797 39.5418 125.127 38.9284L127.982 40.4855C127.51 41.5078 126.778 42.3021 125.787 42.8683C124.797 43.4188 123.633 43.694 122.296 43.694Z" fill="white"/>
<path d="M107.214 43.694C105.862 43.694 104.658 43.4109 103.605 42.8447C102.567 42.2785 101.741 41.5078 101.127 40.5327C100.53 39.5418 100.231 38.4173 100.231 37.159C100.231 35.885 100.53 34.7605 101.127 33.7854C101.741 32.7945 102.567 32.0238 103.605 31.4733C104.658 30.9071 105.862 30.624 107.214 30.624C108.551 30.624 109.746 30.9071 110.8 31.4733C111.854 32.0238 112.68 32.7866 113.277 33.7618C113.875 34.7369 114.174 35.8693 114.174 37.159C114.174 38.4173 113.875 39.5418 113.277 40.5327C112.68 41.5078 111.854 42.2785 110.8 42.8447C109.746 43.4109 108.551 43.694 107.214 43.694ZM107.214 40.6742C107.828 40.6742 108.378 40.5327 108.866 40.2496C109.353 39.9665 109.739 39.5654 110.022 39.0464C110.305 38.5116 110.446 37.8825 110.446 37.159C110.446 36.4198 110.305 35.7907 110.022 35.2717C109.739 34.7526 109.353 34.3516 108.866 34.0685C108.378 33.7854 107.828 33.6438 107.214 33.6438C106.601 33.6438 106.05 33.7854 105.563 34.0685C105.075 34.3516 104.682 34.7526 104.383 35.2717C104.1 35.7907 103.958 36.4198 103.958 37.159C103.958 37.8825 104.1 38.5116 104.383 39.0464C104.682 39.5654 105.075 39.9665 105.563 40.2496C106.05 40.5327 106.601 40.6742 107.214 40.6742Z" fill="white"/>
<path d="M135.739 43.694C134.386 43.694 133.183 43.4109 132.129 42.8447C131.091 42.2785 130.265 41.5078 129.652 40.5327C129.054 39.5418 128.755 38.4173 128.755 37.159C128.755 35.885 129.054 34.7605 129.652 33.7854C130.265 32.7945 131.091 32.0238 132.129 31.4733C133.183 30.9071 134.386 30.624 135.739 30.624C137.075 30.624 138.271 30.9071 139.325 31.4733C140.378 32.0238 141.204 32.7866 141.802 33.7618C142.399 34.7369 142.698 35.8693 142.698 37.159C142.698 38.4173 142.399 39.5418 141.802 40.5327C141.204 41.5078 140.378 42.2785 139.325 42.8447C138.271 43.4109 137.075 43.694 135.739 43.694ZM135.739 40.6742C136.352 40.6742 136.902 40.5327 137.39 40.2496C137.878 39.9665 138.263 39.5654 138.546 39.0464C138.829 38.5116 138.971 37.8825 138.971 37.159C138.971 36.4198 138.829 35.7907 138.546 35.2717C138.263 34.7526 137.878 34.3516 137.39 34.0685C136.902 33.7854 136.352 33.6438 135.739 33.6438C135.125 33.6438 134.575 33.7854 134.087 34.0685C133.6 34.3516 133.206 34.7526 132.908 35.2717C132.624 35.7907 132.483 36.4198 132.483 37.159C132.483 37.8825 132.624 38.5116 132.908 39.0464C133.206 39.5654 133.6 39.9665 134.087 40.2496C134.575 40.5327 135.125 40.6742 135.739 40.6742Z" fill="white"/>
<path d="M96.976 43.6945C95.4818 43.6945 94.318 43.3171 93.4844 42.5621C92.6508 41.7915 92.234 40.6512 92.234 39.1413V28.0059H95.9144V39.0941C95.9144 39.6289 96.0559 40.0457 96.339 40.3445C96.6221 40.6276 97.0075 40.7691 97.495 40.7691C98.077 40.7691 98.5724 40.6119 98.9813 40.2973L99.9722 42.8924C99.5947 43.1598 99.1386 43.3643 98.6039 43.5058C98.0848 43.6316 97.5422 43.6945 96.976 43.6945ZM90.2759 33.9275V31.0964H99.0757V33.9275H90.2759Z" fill="white"/>
<path d="M82.8382 43.694C81.4856 43.694 80.2824 43.4109 79.2286 42.8447C78.1906 42.2785 77.3649 41.5078 76.7515 40.5327C76.1538 39.5418 75.855 38.4173 75.855 37.159C75.855 35.885 76.1538 34.7605 76.7515 33.7854C77.3649 32.7945 78.1906 32.0238 79.2286 31.4733C80.2824 30.9071 81.4856 30.624 82.8382 30.624C84.1751 30.624 85.3704 30.9071 86.4242 31.4733C87.478 32.0238 88.3037 32.7866 88.9014 33.7618C89.499 34.7369 89.7979 35.8693 89.7979 37.159C89.7979 38.4173 89.499 39.5418 88.9014 40.5327C88.3037 41.5078 87.478 42.2785 86.4242 42.8447C85.3704 43.4109 84.1751 43.694 82.8382 43.694ZM82.8382 40.6742C83.4516 40.6742 84.0021 40.5327 84.4897 40.2496C84.9772 39.9665 85.3626 39.5654 85.6457 39.0464C85.9288 38.5116 86.0703 37.8825 86.0703 37.159C86.0703 36.4198 85.9288 35.7907 85.6457 35.2717C85.3626 34.7526 84.9772 34.3516 84.4897 34.0685C84.0021 33.7854 83.4516 33.6438 82.8382 33.6438C82.2248 33.6438 81.6743 33.7854 81.1868 34.0685C80.6992 34.3516 80.306 34.7526 80.0072 35.2717C79.7241 35.7907 79.5825 36.4198 79.5825 37.159C79.5825 37.8825 79.7241 38.5116 80.0072 39.0464C80.306 39.5654 80.6992 39.9665 81.1868 40.2496C81.6743 40.5327 82.2248 40.6742 82.8382 40.6742Z" fill="white"/>
<path d="M67.2944 43.5053V30.8128H70.8096V34.3987L70.3142 33.3607C70.6917 32.4642 71.2972 31.7879 72.1308 31.3318C72.9644 30.8599 73.9788 30.624 75.1742 30.624V34.0213C75.0169 34.0055 74.8753 33.9977 74.7495 33.9977C74.6237 33.982 74.49 33.9741 74.3484 33.9741C73.3418 33.9741 72.524 34.2651 71.8949 34.847C71.2815 35.4132 70.9748 36.3018 70.9748 37.5129V43.5053H67.2944Z" fill="white"/>
<path d="M51 43.5056V26.9912H58.1484C59.6268 26.9912 60.9008 27.235 61.9703 27.7226C63.0398 28.1944 63.8655 28.8786 64.4474 29.7751C65.0294 30.6716 65.3204 31.7411 65.3204 32.9836C65.3204 34.2104 65.0294 35.272 64.4474 36.1685C63.8655 37.065 63.0398 37.757 61.9703 38.2446C60.9008 38.7164 59.6268 38.9524 58.1484 38.9524H53.1233L54.8219 37.2301V43.5056H51ZM54.8219 37.6548L53.1233 35.8382H57.936C59.1156 35.8382 59.9964 35.5866 60.5784 35.0833C61.1603 34.58 61.4513 33.8801 61.4513 32.9836C61.4513 32.0714 61.1603 31.3636 60.5784 30.8603C59.9964 30.357 59.1156 30.1054 57.936 30.1054H53.1233L54.8219 28.2888V37.6548Z" fill="white"/>
<path d="M135.13 20.7976V4.2832H142.633C144.426 4.2832 146.006 4.62922 147.375 5.32125C148.743 5.99756 149.812 6.9491 150.583 8.17589C151.354 9.40267 151.739 10.8575 151.739 12.5404C151.739 14.2076 151.354 15.6624 150.583 16.9049C149.812 18.1317 148.743 19.0911 147.375 19.7832C146.006 20.4595 144.426 20.7976 142.633 20.7976H135.13ZM138.952 17.6599H142.444C143.545 17.6599 144.496 17.4554 145.299 17.0465C146.116 16.6218 146.746 16.0242 147.186 15.2535C147.642 14.4828 147.87 13.5785 147.87 12.5404C147.87 11.4866 147.642 10.5823 147.186 9.82733C146.746 9.05666 146.116 8.46685 145.299 8.05793C144.496 7.63327 143.545 7.42094 142.444 7.42094H138.952V17.6599Z" fill="white"/>
<path d="M115.37 20.7976L122.73 4.2832H126.505L133.889 20.7976H129.879L123.839 6.21775H125.349L119.286 20.7976H115.37ZM119.05 17.2588L120.064 14.357H128.558L129.596 17.2588H119.05Z" fill="white"/>
<path d="M109.156 7.91602C110.162 7.91602 111.059 8.12048 111.845 8.52941C112.647 8.92261 113.276 9.536 113.732 10.3696C114.188 11.1874 114.417 12.2412 114.417 13.5309V20.7973H110.736V14.0971C110.736 13.0748 110.508 12.3199 110.052 11.8323C109.612 11.3447 108.982 11.1009 108.165 11.1009C107.583 11.1009 107.056 11.2268 106.584 11.4784C106.128 11.7143 105.766 12.0839 105.499 12.5872C105.247 13.0905 105.121 13.7354 105.121 14.5218V20.7973H101.441V8.10475H104.956V11.62L104.296 10.5583C104.752 9.70901 105.404 9.0563 106.254 8.60018C107.103 8.14407 108.07 7.91602 109.156 7.91602Z" fill="white"/>
<path d="M93.3287 20.986C91.8817 20.986 90.6077 20.7029 89.5068 20.1367C88.4215 19.5705 87.5801 18.7998 86.9824 17.8247C86.3848 16.8338 86.0859 15.7092 86.0859 14.451C86.0859 13.177 86.3769 12.0525 86.9588 11.0773C87.5565 10.0865 88.3665 9.31581 89.3888 8.76533C90.4111 8.19912 91.5672 7.91602 92.8568 7.91602C94.0994 7.91602 95.216 8.18339 96.2069 8.71814C97.2135 9.23717 98.0078 9.99211 98.5897 10.983C99.1716 11.9581 99.4626 13.1299 99.4626 14.4982C99.4626 14.6397 99.4547 14.8049 99.439 14.9936C99.4233 15.1666 99.4076 15.3318 99.3918 15.4891H89.0821V13.3422H97.4573L96.0418 13.9792C96.0418 13.3186 95.9081 12.7445 95.6407 12.2569C95.3733 11.7694 95.0037 11.3919 94.5319 11.1245C94.06 10.8414 93.5096 10.6999 92.8804 10.6999C92.2513 10.6999 91.693 10.8414 91.2054 11.1245C90.7336 11.3919 90.364 11.7772 90.0966 12.2805C89.8292 12.7681 89.6955 13.35 89.6955 14.0263V14.5926C89.6955 15.2846 89.8449 15.898 90.1438 16.4327C90.4583 16.9518 90.8908 17.3528 91.4413 17.6359C92.0075 17.9033 92.6681 18.037 93.4231 18.037C94.0994 18.037 94.6892 17.9348 95.1925 17.7303C95.7115 17.5258 96.1833 17.2191 96.608 16.8102L98.5661 18.9335C97.9842 19.5941 97.2528 20.1052 96.3721 20.467C95.4913 20.813 94.4768 20.986 93.3287 20.986Z" fill="white"/>
<path d="M78.7151 20.986C77.6456 20.986 76.7098 20.7501 75.9077 20.2782C75.1056 19.8064 74.4765 19.0908 74.0203 18.1314C73.58 17.1562 73.3598 15.9294 73.3598 14.451C73.3598 12.9568 73.5721 11.7301 73.9967 10.7706C74.4214 9.81124 75.0348 9.09562 75.8369 8.62378C76.6391 8.15194 77.5985 7.91602 78.7151 7.91602C79.9105 7.91602 80.98 8.19126 81.9237 8.74174C82.8831 9.27649 83.638 10.0314 84.1885 11.0066C84.7547 11.9817 85.0378 13.1298 85.0378 14.451C85.0378 15.7879 84.7547 16.9439 84.1885 17.919C83.638 18.8942 82.8831 19.6491 81.9237 20.1839C80.98 20.7186 79.9105 20.986 78.7151 20.986ZM71.2129 25.3741V8.10475H74.7281V10.6999L74.6573 14.4746L74.8932 18.2257V25.3741H71.2129ZM78.0782 17.9662C78.6916 17.9662 79.2342 17.8247 79.706 17.5416C80.1936 17.2585 80.5789 16.8574 80.862 16.3384C81.1609 15.8036 81.3103 15.1745 81.3103 14.451C81.3103 13.7118 81.1609 13.0827 80.862 12.5636C80.5789 12.0446 80.1936 11.6436 79.706 11.3605C79.2342 11.0773 78.6916 10.9358 78.0782 10.9358C77.4648 10.9358 76.9143 11.0773 76.4267 11.3605C75.9392 11.6436 75.5538 12.0446 75.2707 12.5636C74.9876 13.0827 74.8461 13.7118 74.8461 14.451C74.8461 15.1745 74.9876 15.8036 75.2707 16.3384C75.5538 16.8574 75.9392 17.2585 76.4267 17.5416C76.9143 17.8247 77.4648 17.9662 78.0782 17.9662Z" fill="white"/>
<path d="M60.0593 21.0806C58.7539 21.0806 57.5429 20.8683 56.4262 20.4436C55.3252 20.019 54.3658 19.4213 53.5479 18.6506C52.7458 17.88 52.1167 16.9756 51.6606 15.9376C51.2202 14.8995 51 13.7671 51 12.5403C51 11.3135 51.2202 10.1811 51.6606 9.14306C52.1167 8.10501 52.7537 7.20065 53.5715 6.42998C54.3894 5.6593 55.3488 5.06164 56.4498 4.63698C57.5507 4.21233 58.746 4 60.0357 4C61.3412 4 62.5365 4.21233 63.6217 4.63698C64.7227 5.06164 65.6742 5.6593 66.4764 6.42998C67.2942 7.20065 67.9312 8.10501 68.3873 9.14306C68.8434 10.1654 69.0715 11.2978 69.0715 12.5403C69.0715 13.7671 68.8434 14.9074 68.3873 15.9612C67.9312 16.9992 67.2942 17.9036 66.4764 18.6742C65.6742 19.4292 64.7227 20.019 63.6217 20.4436C62.5365 20.8683 61.349 21.0806 60.0593 21.0806ZM60.0357 17.8249C60.775 17.8249 61.4513 17.6991 62.0647 17.4474C62.6938 17.1958 63.2443 16.8341 63.7161 16.3622C64.1879 15.8904 64.5497 15.332 64.8013 14.6872C65.0687 14.0423 65.2024 13.3267 65.2024 12.5403C65.2024 11.7539 65.0687 11.0383 64.8013 10.3934C64.5497 9.74859 64.1879 9.19024 63.7161 8.7184C63.26 8.24656 62.7174 7.88482 62.0882 7.63317C61.4591 7.38152 60.775 7.2557 60.0357 7.2557C59.2965 7.2557 58.6124 7.38152 57.9832 7.63317C57.3698 7.88482 56.8272 8.24656 56.3554 8.7184C55.8835 9.19024 55.5139 9.74859 55.2466 10.3934C54.9949 11.0383 54.8691 11.7539 54.8691 12.5403C54.8691 13.311 54.9949 14.0266 55.2466 14.6872C55.5139 15.332 55.8757 15.8904 56.3318 16.3622C56.8036 16.8341 57.3541 17.1958 57.9832 17.4474C58.6124 17.6991 59.2965 17.8249 60.0357 17.8249Z" fill="white"/>
<path d="M21.5 0.866025C22.4282 0.330127 23.5718 0.330127 24.5 0.866025L41.4186 10.634C42.3468 11.1699 42.9186 12.1603 42.9186 13.2321V32.7679C42.9186 33.8397 42.3468 34.8301 41.4186 35.366L24.5 45.134C23.5718 45.6699 22.4282 45.6699 21.5 45.134L4.58141 35.366C3.65321 34.8301 3.08142 33.8397 3.08142 32.7679V13.2321C3.08142 12.1603 3.65321 11.1699 4.58142 10.634L21.5 0.866025Z" fill="#4BD57F"/>
<path opacity="0.21" d="M24.3208 6L37.8371 14.0382V32.621L24.3208 24.6866V6Z" fill="white"/>
<path opacity="0.42" d="M16.4961 9.75391L30.0124 17.7991V36.3818L16.4961 28.4475V9.75391Z" fill="white"/>
<path d="M8 13.0391L21.5094 21.0773V39.667L8 31.7326V13.0391Z" fill="white"/>
</svg>
