<svg width="293" height="46" viewBox="0 0 293 46" fill="none" xmlns="http://www.w3.org/2000/svg">
<g clip-path="url(#clip0_6266_1341)">
<path d="M288.099 32.6297V12.5156H292.327V32.6297H288.099Z" fill="white"/>
<path d="M263.343 32.8479C261.771 32.8479 260.37 32.5316 259.141 31.8991C257.912 31.2485 256.945 30.3539 256.241 29.2154C255.554 28.0769 255.21 26.7847 255.21 25.339C255.21 23.8751 255.554 22.583 256.241 21.4625C256.945 20.324 257.912 19.4385 259.141 18.806C260.37 18.1554 261.771 17.8301 263.343 17.8301C264.879 17.8301 266.216 18.1554 267.355 18.806C268.493 19.4385 269.334 20.3511 269.876 21.5439L266.596 23.3059C266.216 22.6191 265.737 22.1131 265.159 21.7878C264.599 21.4625 263.984 21.2999 263.316 21.2999C262.593 21.2999 261.942 21.4625 261.364 21.7878C260.786 22.1131 260.325 22.574 259.981 23.1703C259.656 23.7667 259.493 24.4896 259.493 25.339C259.493 26.1883 259.656 26.9112 259.981 27.5076C260.325 28.104 260.786 28.5648 261.364 28.8901C261.942 29.2154 262.593 29.378 263.316 29.378C263.984 29.378 264.599 29.2244 265.159 28.9172C265.737 28.5919 266.216 28.0769 266.596 27.3721L269.876 29.1612C269.334 30.3359 268.493 31.2485 267.355 31.8991C266.216 32.5316 264.879 32.8479 263.343 32.8479Z" fill="white"/>
<path d="M246.013 32.8479C244.459 32.8479 243.077 32.5226 241.866 31.872C240.673 31.2214 239.724 30.3359 239.019 29.2154C238.333 28.0769 237.989 26.7847 237.989 25.339C237.989 23.8751 238.333 22.583 239.019 21.4625C239.724 20.324 240.673 19.4385 241.866 18.806C243.077 18.1554 244.459 17.8301 246.013 17.8301C247.549 17.8301 248.923 18.1554 250.134 18.806C251.344 19.4385 252.293 20.315 252.98 21.4354C253.667 22.5559 254.01 23.8571 254.01 25.339C254.01 26.7847 253.667 28.0769 252.98 29.2154C252.293 30.3359 251.344 31.2214 250.134 31.872C248.923 32.5226 247.549 32.8479 246.013 32.8479ZM246.013 29.378C246.718 29.378 247.351 29.2154 247.911 28.8901C248.471 28.5648 248.914 28.104 249.239 27.5076C249.564 26.8931 249.727 26.1703 249.727 25.339C249.727 24.4896 249.564 23.7667 249.239 23.1703C248.914 22.574 248.471 22.1131 247.911 21.7878C247.351 21.4625 246.718 21.2999 246.013 21.2999C245.308 21.2999 244.676 21.4625 244.116 21.7878C243.555 22.1131 243.104 22.574 242.76 23.1703C242.435 23.7667 242.272 24.4896 242.272 25.339C242.272 26.1703 242.435 26.8931 242.76 27.5076C243.104 28.104 243.555 28.5648 244.116 28.8901C244.676 29.2154 245.308 29.378 246.013 29.378Z" fill="white"/>
<path d="M278.789 32.8479C277.235 32.8479 275.853 32.5226 274.642 31.872C273.449 31.2214 272.5 30.3359 271.795 29.2154C271.109 28.0769 270.765 26.7847 270.765 25.339C270.765 23.8751 271.109 22.583 271.795 21.4625C272.5 20.324 273.449 19.4385 274.642 18.806C275.853 18.1554 277.235 17.8301 278.789 17.8301C280.325 17.8301 281.699 18.1554 282.91 18.806C284.121 19.4385 285.069 20.315 285.756 21.4354C286.443 22.5559 286.786 23.8571 286.786 25.339C286.786 26.7847 286.443 28.0769 285.756 29.2154C285.069 30.3359 284.121 31.2214 282.91 31.872C281.699 32.5226 280.325 32.8479 278.789 32.8479ZM278.789 29.378C279.494 29.378 280.127 29.2154 280.687 28.8901C281.247 28.5648 281.69 28.104 282.015 27.5076C282.34 26.8931 282.503 26.1703 282.503 25.339C282.503 24.4896 282.34 23.7667 282.015 23.1703C281.69 22.574 281.247 22.1131 280.687 21.7878C280.127 21.4625 279.494 21.2999 278.789 21.2999C278.085 21.2999 277.452 21.4625 276.892 21.7878C276.332 22.1131 275.88 22.574 275.536 23.1703C275.211 23.7667 275.048 24.4896 275.048 25.339C275.048 26.1703 275.211 26.8931 275.536 27.5076C275.88 28.104 276.332 28.5648 276.892 28.8901C277.452 29.2154 278.085 29.378 278.789 29.378Z" fill="white"/>
<path d="M234.25 32.8471C232.533 32.8471 231.196 32.4133 230.238 31.5459C229.28 30.6604 228.801 29.3501 228.801 27.6152V14.8203H233.03V27.561C233.03 28.1755 233.193 28.6544 233.518 28.9977C233.843 29.323 234.286 29.4857 234.846 29.4857C235.515 29.4857 236.084 29.305 236.554 28.9435L237.693 31.9254C237.259 32.2326 236.735 32.4676 236.12 32.6302C235.524 32.7748 234.9 32.8471 234.25 32.8471ZM226.551 21.6244V18.3714H236.663V21.6244H226.551Z" fill="white"/>
<path d="M218.004 32.8479C216.45 32.8479 215.068 32.5226 213.857 31.872C212.664 31.2214 211.715 30.3359 211.011 29.2154C210.324 28.0769 209.98 26.7847 209.98 25.339C209.98 23.8751 210.324 22.583 211.011 21.4625C211.715 20.324 212.664 19.4385 213.857 18.806C215.068 18.1554 216.45 17.8301 218.004 17.8301C219.541 17.8301 220.914 18.1554 222.125 18.806C223.336 19.4385 224.284 20.315 224.971 21.4354C225.658 22.5559 226.001 23.8571 226.001 25.339C226.001 26.7847 225.658 28.0769 224.971 29.2154C224.284 30.3359 223.336 31.2214 222.125 31.872C220.914 32.5226 219.541 32.8479 218.004 32.8479ZM218.004 29.378C218.709 29.378 219.342 29.2154 219.902 28.8901C220.462 28.5648 220.905 28.104 221.23 27.5076C221.556 26.8931 221.718 26.1703 221.718 25.339C221.718 24.4896 221.556 23.7667 221.23 23.1703C220.905 22.574 220.462 22.1131 219.902 21.7878C219.342 21.4625 218.709 21.2999 218.004 21.2999C217.3 21.2999 216.667 21.4625 216.107 21.7878C215.547 22.1131 215.095 22.574 214.751 23.1703C214.426 23.7667 214.264 24.4896 214.264 25.339C214.264 26.1703 214.426 26.8931 214.751 27.5076C215.095 28.104 215.547 28.5648 216.107 28.8901C216.667 29.2154 217.3 29.378 218.004 29.378Z" fill="white"/>
<path d="M200.144 32.631V18.0469H204.183V22.1673L203.614 20.9746C204.048 19.9445 204.743 19.1674 205.701 18.6433C206.659 18.1012 207.825 17.8301 209.198 17.8301V21.7336C209.017 21.7155 208.855 21.7065 208.71 21.7065C208.566 21.6884 208.412 21.6794 208.249 21.6794C207.093 21.6794 206.153 22.0137 205.43 22.6824C204.725 23.333 204.373 24.354 204.373 25.7456V32.631H200.144Z" fill="white"/>
<path d="M181.421 32.6298V13.6543H189.635C191.334 13.6543 192.798 13.9344 194.027 14.4946C195.255 15.0368 196.204 15.8229 196.873 16.853C197.542 17.8831 197.876 19.112 197.876 20.5397C197.876 21.9493 197.542 23.1692 196.873 24.1993C196.204 25.2294 195.255 26.0245 194.027 26.5848C192.798 27.1269 191.334 27.398 189.635 27.398H183.861L185.813 25.4191V32.6298H181.421ZM185.813 25.9071L183.861 23.8198H189.391C190.746 23.8198 191.759 23.5306 192.427 22.9523C193.096 22.374 193.43 21.5698 193.43 20.5397C193.43 19.4915 193.096 18.6783 192.427 18.1C191.759 17.5217 190.746 17.2325 189.391 17.2325H183.861L185.813 15.1452V25.9071Z" fill="white"/>
<path d="M152.433 32.6298V13.6543H161.054C163.114 13.6543 164.93 14.0519 166.502 14.847C168.075 15.6241 169.303 16.7175 170.189 18.1271C171.075 19.5367 171.517 21.2084 171.517 23.1421C171.517 25.0577 171.075 26.7293 170.189 28.157C169.303 29.5666 168.075 30.669 166.502 31.4642C164.93 32.2413 163.114 32.6298 161.054 32.6298H152.433ZM156.825 29.0245H160.837C162.102 29.0245 163.195 28.7895 164.117 28.3197C165.057 27.8317 165.779 27.145 166.285 26.2595C166.81 25.3739 167.072 24.3348 167.072 23.1421C167.072 21.9312 166.81 20.8921 166.285 20.0247C165.779 19.1391 165.057 18.4614 164.117 17.9916C163.195 17.5036 162.102 17.2596 160.837 17.2596H156.825V29.0245Z" fill="white"/>
<path d="M129.727 32.6298L138.184 13.6543H142.522L151.007 32.6298H146.398L139.459 15.8771H141.193L134.227 32.6298H129.727ZM133.956 28.5636L135.121 25.2294H144.88L146.073 28.5636H133.956Z" fill="white"/>
<path d="M122.587 17.8301C123.743 17.8301 124.773 18.065 125.677 18.5349C126.599 18.9867 127.322 19.6915 127.846 20.6493C128.37 21.589 128.632 22.7999 128.632 24.2818V32.631H124.403V24.9323C124.403 23.7577 124.141 22.8902 123.617 22.33C123.111 21.7698 122.388 21.4896 121.448 21.4896C120.78 21.4896 120.174 21.6342 119.632 21.9234C119.108 22.1944 118.692 22.6191 118.385 23.1974C118.096 23.7757 117.951 24.5167 117.951 25.4203V32.631H113.722V18.0469H117.761V22.086L117.002 20.8662C117.527 19.8903 118.277 19.1403 119.252 18.6162C120.228 18.0921 121.34 17.8301 122.587 17.8301Z" fill="white"/>
<path d="M104.401 32.8479C102.738 32.8479 101.275 32.5226 100.01 31.872C98.7625 31.2214 97.7957 30.3359 97.109 29.2154C96.4222 28.0769 96.0789 26.7847 96.0789 25.339C96.0789 23.8751 96.4132 22.583 97.0819 21.4625C97.7686 20.324 98.6993 19.4385 99.874 18.806C101.049 18.1554 102.377 17.8301 103.859 17.8301C105.287 17.8301 106.57 18.1373 107.708 18.7517C108.865 19.3481 109.777 20.2156 110.446 21.3541C111.115 22.4746 111.449 23.8209 111.449 25.3932C111.449 25.5558 111.44 25.7456 111.422 25.9624C111.404 26.1612 111.386 26.351 111.368 26.5317H99.5216V24.0649H109.145L107.518 24.7968C107.518 24.0378 107.365 23.3782 107.058 22.8179C106.75 22.2577 106.326 21.824 105.783 21.5168C105.241 21.1915 104.609 21.0288 103.886 21.0288C103.163 21.0288 102.522 21.1915 101.961 21.5168C101.419 21.824 100.994 22.2667 100.687 22.845C100.38 23.4053 100.226 24.0739 100.226 24.851V25.5016C100.226 26.2968 100.398 27.0016 100.741 27.616C101.103 28.2124 101.6 28.6732 102.232 28.9985C102.883 29.3058 103.642 29.4594 104.509 29.4594C105.287 29.4594 105.964 29.3419 106.543 29.107C107.139 28.872 107.681 28.5196 108.169 28.0498L110.419 30.4895C109.75 31.2485 108.91 31.8358 107.898 32.2515C106.886 32.6491 105.72 32.8479 104.401 32.8479Z" fill="white"/>
<path d="M87.6093 32.8479C86.3804 32.8479 85.3051 32.5768 84.3835 32.0346C83.4618 31.4925 82.7389 30.6702 82.2148 29.5678C81.7088 28.4473 81.4558 27.0377 81.4558 25.339C81.4558 23.6221 81.6998 22.2125 82.1877 21.1101C82.6757 20.0077 83.3805 19.1855 84.3021 18.6433C85.2238 18.1012 86.3262 17.8301 87.6093 17.8301C88.9828 17.8301 90.2117 18.1463 91.296 18.7789C92.3984 19.3933 93.2658 20.2608 93.8983 21.3812C94.5489 22.5017 94.8742 23.8209 94.8742 25.339C94.8742 26.8751 94.5489 28.2034 93.8983 29.3238C93.2658 30.4443 92.3984 31.3117 91.296 31.9262C90.2117 32.5406 88.9828 32.8479 87.6093 32.8479ZM78.989 37.8899V18.0469H83.0281V21.0288L82.9467 25.3661L83.2178 29.6762V37.8899H78.989ZM86.8774 29.378C87.5822 29.378 88.2057 29.2154 88.7478 28.8901C89.3081 28.5648 89.7508 28.104 90.0761 27.5076C90.4195 26.8932 90.5912 26.1703 90.5912 25.339C90.5912 24.4896 90.4195 23.7667 90.0761 23.1703C89.7508 22.574 89.3081 22.1131 88.7478 21.7878C88.2057 21.4625 87.5822 21.2999 86.8774 21.2999C86.1726 21.2999 85.5401 21.4625 84.9798 21.7878C84.4196 22.1131 83.9768 22.574 83.6515 23.1703C83.3263 23.7667 83.1636 24.4896 83.1636 25.339C83.1636 26.1703 83.3263 26.8932 83.6515 27.5076C83.9768 28.104 84.4196 28.5648 84.9798 28.8901C85.5401 29.2154 86.1726 29.378 86.8774 29.378Z" fill="white"/>
<path d="M66.1739 32.9542C64.6739 32.9542 63.2824 32.7103 61.9992 32.2223C60.7342 31.7344 59.6318 31.0477 58.6921 30.1621C57.7704 29.2766 57.0475 28.2375 56.5234 27.0447C56.0174 25.852 55.7644 24.5508 55.7644 23.1412C55.7644 21.7316 56.0174 20.4304 56.5234 19.2376C57.0475 18.0449 57.7794 17.0058 58.7192 16.1202C59.6589 15.2347 60.7613 14.548 62.0264 14.06C63.2914 13.5721 64.6649 13.3281 66.1468 13.3281C67.6467 13.3281 69.0202 13.5721 70.2672 14.06C71.5322 14.548 72.6255 15.2347 73.5472 16.1202C74.487 17.0058 75.2189 18.0449 75.7429 19.2376C76.267 20.4123 76.5291 21.7135 76.5291 23.1412C76.5291 24.5508 76.267 25.861 75.7429 27.0718C75.2189 28.2646 74.487 29.3037 73.5472 30.1892C72.6255 31.0567 71.5322 31.7344 70.2672 32.2223C69.0202 32.7103 67.6558 32.9542 66.1739 32.9542ZM66.1468 29.2134C66.9961 29.2134 67.7732 29.0688 68.478 28.7796C69.2009 28.4905 69.8334 28.0748 70.3756 27.5327C70.9177 26.9905 71.3334 26.349 71.6225 25.608C71.9298 24.8671 72.0834 24.0448 72.0834 23.1412C72.0834 22.2376 71.9298 21.4153 71.6225 20.6744C71.3334 19.9334 70.9177 19.2919 70.3756 18.7497C69.8515 18.2075 69.228 17.7919 68.5051 17.5027C67.7823 17.2136 66.9961 17.069 66.1468 17.069C65.2974 17.069 64.5112 17.2136 63.7884 17.5027C63.0836 17.7919 62.4601 18.2075 61.9179 18.7497C61.3758 19.2919 60.9511 19.9334 60.6438 20.6744C60.3547 21.4153 60.2101 22.2376 60.2101 23.1412C60.2101 24.0267 60.3547 24.849 60.6438 25.608C60.9511 26.349 61.3667 26.9905 61.8908 27.5327C62.433 28.0748 63.0655 28.4905 63.7884 28.7796C64.5112 29.0688 65.2974 29.2134 66.1468 29.2134Z" fill="white"/>
<path d="M18.8222 0.401297C19.749 -0.133766 20.8908 -0.133766 21.8175 0.401298L39.1421 10.4036C40.0689 10.9387 40.6398 11.9275 40.6398 12.9977V33.0023C40.6398 34.0725 40.0689 35.0613 39.1421 35.5964L21.8175 45.5987C20.8908 46.1338 19.749 46.1338 18.8222 45.5987L1.49766 35.5964C0.570905 35.0613 0 34.0725 0 33.0023V12.9977C0 11.9275 0.570906 10.9387 1.49766 10.4036L18.8222 0.401297Z" fill="#6AA4F0"/>
<path opacity="0.31" d="M21.1394 6.52539L34.6346 14.5511V33.1049L21.1394 25.1829V6.52539Z" fill="white"/>
<path d="M13.3269 10.2734L26.8221 18.3061V36.8599L13.3269 28.9379V10.2734Z" fill="white" fill-opacity="0.53"/>
<path d="M4.84424 13.5527L18.3326 21.5784V40.1392L4.84424 32.2172V13.5527Z" fill="white"/>
</g>
<defs>
<clipPath id="clip0_6266_1341">
<rect width="293" height="46" fill="white"/>
</clipPath>
</defs>
</svg>
