<svg width="251" height="62" viewBox="0 0 251 62" fill="none" xmlns="http://www.w3.org/2000/svg">
<rect width="251" height="62" fill="#1E1E1E"/>
<g clip-path="url(#clip0_4755_58)">
<path d="M19.0907 48.3308L34.5464 39.4347V34.1926L23.8369 28.0376V15.7886L19.2732 13L4 21.8839V39.5554L19.0907 48.3308ZM10.5109 25.4318L17.326 21.3342V31.8159L26.3317 37.0568L19.2732 40.9911L10.5109 35.7161V25.4318Z" fill="white"/>
<path d="M34.5466 21.8966V29.3167L28.1245 25.6067V18.0781L34.5466 21.8966Z" fill="white"/>
</g>
<path d="M238.268 39.4974V21.832H241V39.4974H238.268Z" fill="white"/>
<path d="M229.651 39.6152C226.188 39.6152 223.479 36.9065 223.479 33.4912C223.479 30.0759 226.188 27.3672 229.651 27.3672C233.113 27.3672 235.822 30.0759 235.822 33.4912C235.822 36.9065 233.113 39.6152 229.651 39.6152ZM229.651 37.0478C231.629 37.0478 233.089 35.4933 233.089 33.4912C233.089 31.4891 231.629 29.9346 229.651 29.9346C227.672 29.9346 226.212 31.4891 226.212 33.4912C226.212 35.4933 227.672 37.0478 229.651 37.0478Z" fill="white"/>
<path d="M216.056 39.6152C212.618 39.6152 209.885 36.9065 209.885 33.4912C209.885 30.0759 212.618 27.3672 216.056 27.3672C219.024 27.3672 221.403 29.2515 222.039 31.8895H219.165C218.624 30.5941 217.47 29.8875 216.056 29.8875C214.101 29.8875 212.618 31.4656 212.618 33.4912C212.618 35.5168 214.101 37.0949 216.056 37.0949C217.47 37.0949 218.624 36.3883 219.165 35.0929H222.039C221.403 37.7309 219.024 39.6152 216.056 39.6152Z" fill="white"/>
<path d="M201.956 39.6152C198.494 39.6152 195.785 36.9065 195.785 33.4912C195.785 30.0759 198.494 27.3672 201.956 27.3672C205.419 27.3672 208.127 30.0759 208.127 33.4912C208.127 36.9065 205.419 39.6152 201.956 39.6152ZM201.956 37.0478C203.935 37.0478 205.395 35.4933 205.395 33.4912C205.395 31.4891 203.935 29.9346 201.956 29.9346C199.978 29.9346 198.517 31.4891 198.517 33.4912C198.517 35.4933 199.978 37.0478 201.956 37.0478Z" fill="white"/>
<path d="M192.177 39.6147C189.963 39.6147 188.361 38.1544 188.361 35.6341V30.0518H186.053V27.4845H188.455V24.3047H191.093V27.4845H194.014V30.0518H191.093V35.3514C191.093 36.4585 191.753 37.0473 192.742 37.0473C193.26 37.0473 193.59 36.9767 194.014 36.7647V39.2614C193.449 39.5205 192.93 39.6147 192.177 39.6147Z" fill="white"/>
<path d="M178.748 39.6152C175.285 39.6152 172.577 36.9065 172.577 33.4912C172.577 30.0759 175.285 27.3672 178.748 27.3672C182.21 27.3672 184.919 30.0759 184.919 33.4912C184.919 36.9065 182.21 39.6152 178.748 39.6152ZM178.748 37.0478C180.726 37.0478 182.187 35.4933 182.187 33.4912C182.187 31.4891 180.726 29.9346 178.748 29.9346C176.769 29.9346 175.309 31.4891 175.309 33.4912C175.309 35.4933 176.769 37.0478 178.748 37.0478Z" fill="white"/>
<path d="M164.616 39.4974V27.485H167.348V29.3457C168.031 28.0974 169.138 27.3672 170.622 27.3672C170.928 27.3672 171.187 27.3907 171.47 27.4378V30.123C171.164 30.0759 170.857 30.0523 170.551 30.0523C168.596 30.0523 167.348 31.2536 167.348 33.1379V39.4974H164.616Z" fill="white"/>
<path d="M150.935 39.4975V23.0098H156.729C159.65 23.0098 162.335 24.9412 162.335 28.4272C162.335 31.9367 159.65 33.8681 156.729 33.8681H153.832V39.4975H150.935ZM153.832 31.2536H156.541C158.26 31.2536 159.438 30.1937 159.438 28.4272C159.438 26.6842 158.26 25.6242 156.541 25.6242H153.832V31.2536Z" fill="white"/>
<path d="M127.957 39.4975V23.0098H133.421C138.32 23.0098 141.783 26.6842 141.783 31.2536C141.783 35.7995 138.32 39.4975 133.421 39.4975H127.957ZM133.421 36.883C136.624 36.883 138.886 34.3863 138.886 31.2536C138.886 28.121 136.624 25.6242 133.421 25.6242H130.854V36.883H133.421Z" fill="white"/>
<path d="M110.116 39.4975L116.899 23.0098H118.948L125.732 39.4975H122.717L121.563 36.5768H114.285L113.131 39.4975H110.116ZM115.25 34.1036H120.597L117.912 27.273L115.25 34.1036Z" fill="white"/>
<path d="M105.432 39.4974V21.832H108.164V39.4974H105.432Z" fill="white"/>
<path d="M95.3982 39.6152C92.1949 39.6152 89.8159 37.0007 89.8159 33.4912C89.8159 29.9817 92.1949 27.3672 95.3982 27.3672C97.0705 27.3672 98.4366 28.0738 99.3552 29.2751V27.485H102.087V39.4974H99.3552V37.7073C98.4366 38.9086 97.0705 39.6152 95.3982 39.6152ZM95.9399 37.0949C97.9184 37.0949 99.3552 35.5168 99.3552 33.4912C99.3552 31.4656 97.9184 29.8875 95.9399 29.8875C94.0085 29.8875 92.5482 31.442 92.5482 33.4912C92.5482 35.5404 94.0085 37.0949 95.9399 37.0949Z" fill="white"/>
<path d="M86.1382 39.6147C83.9241 39.6147 82.3224 38.1544 82.3224 35.6341V30.0518H80.0142V27.4845H82.4167V24.3047H85.0547V27.4845H87.9754V30.0518H85.0547V35.3514C85.0547 36.4585 85.7142 37.0473 86.7035 37.0473C87.2216 37.0473 87.5514 36.9767 87.9754 36.7647V39.2614C87.4101 39.5205 86.8919 39.6147 86.1382 39.6147Z" fill="white"/>
<path d="M71.8037 39.4974V27.485H74.536V29.3457C75.219 28.0974 76.326 27.3672 77.8099 27.3672C78.1161 27.3672 78.3752 27.3907 78.6579 27.4378V30.123C78.3517 30.0759 78.0455 30.0523 77.7393 30.0523C75.7843 30.0523 74.536 31.2536 74.536 33.1379V39.4974H71.8037Z" fill="white"/>
<path d="M63.1862 39.6152C59.7238 39.6152 57.0151 36.9065 57.0151 33.4912C57.0151 30.0759 59.7238 27.3672 63.1862 27.3672C66.6487 27.3672 69.3574 30.0759 69.3574 33.4912C69.3574 36.9065 66.6487 39.6152 63.1862 39.6152ZM63.1862 37.0478C65.1648 37.0478 66.6251 35.4933 66.6251 33.4912C66.6251 31.4891 65.1648 29.9346 63.1862 29.9346C61.2077 29.9346 59.7474 31.4891 59.7474 33.4912C59.7474 35.4933 61.2077 37.0478 63.1862 37.0478Z" fill="white"/>
<path d="M44.4829 39.4975V23.0098H50.2772C53.1978 23.0098 55.883 24.9412 55.883 28.4272C55.883 31.9367 53.1978 33.8681 50.2772 33.8681H47.38V39.4975H44.4829ZM47.38 31.2536H50.0887C51.8082 31.2536 52.9859 30.1937 52.9859 28.4272C52.9859 26.6842 51.8082 25.6242 50.0887 25.6242H47.38V31.2536Z" fill="white"/>
<defs>
<clipPath id="clip0_4755_58">
<rect width="30.5464" height="35.3308" fill="white" transform="translate(4 13)"/>
</clipPath>
</defs>
</svg>
