<svg width="14" height="14" viewBox="0 0 14 14" fill="none" xmlns="http://www.w3.org/2000/svg">
<path d="M8.3 0V3.28222C8.30011 3.70588 8.46951 4.11344 8.77346 4.42137C9.07741 4.7293 9.4929 4.91428 9.93475 4.93837L10.0333 4.94096H13.5V11.5111C13.5 12.1712 13.2261 12.8043 12.7385 13.271C12.2509 13.7378 11.5896 14 10.9 14H3.1C2.41044 14 1.74912 13.7378 1.26152 13.271C0.773928 12.8043 0.5 12.1712 0.5 11.5111V2.48889C0.5 1.82879 0.773928 1.19574 1.26152 0.728979C1.74912 0.262221 2.41044 0 3.1 0H8.3ZM9.98513 9.57341H4.01488C3.80779 9.57357 3.60871 9.64997 3.45886 9.78679C3.30901 9.92361 3.21988 10.1104 3.20992 10.3084C3.19996 10.5064 3.26995 10.7004 3.40538 10.8504C3.54081 11.0004 3.73131 11.0947 3.93742 11.1139L4.01488 11.1176H9.98513C10.199 11.1176 10.4042 11.0362 10.5554 10.8914C10.7067 10.7466 10.7917 10.5502 10.7917 10.3455C10.7917 10.1407 10.7067 9.94433 10.5554 9.79954C10.4042 9.65475 10.199 9.57341 9.98513 9.57341ZM9.98513 6.48511H4.01488C3.80676 6.4838 3.60617 6.55954 3.45505 6.69651C3.30392 6.83348 3.21395 7.02107 3.20394 7.22006C3.19394 7.41906 3.26468 7.61405 3.40138 7.76427C3.53807 7.9145 3.73013 8.00833 3.93742 8.02615L4.01488 8.02926H9.98513C10.199 8.02926 10.4042 7.94792 10.5554 7.80312C10.7067 7.65833 10.7917 7.46195 10.7917 7.25719C10.7917 7.05242 10.7067 6.85604 10.5554 6.71125C10.4042 6.56645 10.199 6.48511 9.98513 6.48511ZM10.412 0.138444C10.5907 0.138444 10.763 0.205852 10.8908 0.326148L12.0516 1.42022L13.2118 2.51378C13.306 2.60273 13.3705 2.71648 13.397 2.84057C13.4235 2.96466 13.4108 3.09349 13.3607 3.21069C13.3105 3.32789 13.2251 3.42818 13.1153 3.4988C13.0054 3.56943 12.8761 3.6072 12.7438 3.60733H10.5425C10.327 3.60733 10.1203 3.52539 9.96798 3.37953C9.8156 3.23367 9.73 3.03584 9.73 2.82956V0.791778C9.73 0.430889 10.0355 0.138444 10.4125 0.138444H10.412Z" fill="#373737"/>
</svg>
