<svg width="18" height="14" viewBox="0 0 18 14" fill="none" xmlns="http://www.w3.org/2000/svg">
<path d="M16.1431 1.64517L17.5 0.295581V0H12.8007L9.45156 8.67038L5.64206 0H0.714713V0.295581L2.29961 2.27987C2.45456 2.42651 2.53424 2.6419 2.51432 2.85728V10.6547C2.56302 10.9365 2.47669 11.2229 2.28633 11.4268L0.5 13.6792V13.9702H5.56016V13.6746L3.77604 11.4291C3.68045 11.3287 3.60855 11.2067 3.56593 11.0728C3.52331 10.9389 3.51113 10.7966 3.53034 10.657V3.91129L7.97292 13.9748H8.48867L12.3092 3.91129V11.9286C12.3092 12.1394 12.3092 12.183 12.1764 12.3228L10.8018 13.7044V14H17.469V13.7044L16.1431 12.3548C16.028 12.2632 15.9682 12.1097 15.9926 11.9607V2.03928C15.9811 1.96565 15.989 1.89018 16.0155 1.82082C16.042 1.75146 16.0861 1.69078 16.1431 1.64517Z" fill="#373737"/>
</svg>
