<svg width="16" height="13" viewBox="0 0 16 13" fill="none" xmlns="http://www.w3.org/2000/svg">
<path fill-rule="evenodd" clip-rule="evenodd" d="M1.54844 5.23253C5.56423 3.51723 8.24203 2.38639 9.5819 1.84002C13.4074 0.280035 14.2024 0.00904862 14.7205 9.52823e-05C14.8344 -0.00187138 15.0892 0.0258154 15.2543 0.157115C15.3937 0.267982 15.432 0.417742 15.4503 0.522855C15.4687 0.627969 15.4915 0.867415 15.4734 1.05452C15.2661 3.19003 14.369 8.37234 13.9127 10.7641C13.7196 11.7762 13.3394 12.1155 12.9713 12.1487C12.1713 12.2209 11.5638 11.6305 10.789 11.1325C9.57667 10.3533 8.8917 9.86833 7.7149 9.108C6.35483 8.22927 7.23652 7.74634 8.01158 6.95707C8.21442 6.75054 11.7391 3.60745 11.8073 3.32232C11.8158 3.28666 11.8237 3.15373 11.7431 3.08355C11.6626 3.01336 11.5438 3.03736 11.458 3.05645C11.3364 3.08351 9.39953 4.33859 5.64746 6.82173C5.09769 7.1918 4.59973 7.37213 4.15358 7.36267C3.66173 7.35227 2.7156 7.09007 2.01226 6.86587C1.14958 6.591 0.46394 6.4456 0.523644 5.97873C0.55474 5.73553 0.896338 5.4868 1.54844 5.23253Z" fill="#373737"/>
</svg>
