<svg width="41" height="40" viewBox="0 0 41 40" fill="none" xmlns="http://www.w3.org/2000/svg">
<path d="M26.5742 30.2637L24.7383 30.4106C23.3841 30.5187 22.0272 30.573 20.6676 30.5735C19.3017 30.5735 17.9366 30.5192 16.5723 30.4106L14.7363 30.2637C13.6239 30.1757 12.5792 29.6941 11.7898 28.9053C11.0003 28.1165 10.5179 27.0722 10.4289 25.9598L10.282 24.1239C10.1734 22.765 10.1191 21.404 10.1191 20.0407C10.1191 18.6774 10.1734 17.3165 10.282 15.9579L10.4289 14.12C10.5174 13.0079 10.9992 11.9637 11.788 11.1748C12.5767 10.3858 13.6208 9.90369 14.7328 9.81489L16.5687 9.66802C17.9279 9.55942 19.2889 9.50513 20.652 9.50513C22.015 9.50513 23.3759 9.55942 24.7348 9.66802L26.5707 9.81489C27.6831 9.90286 28.7277 10.3844 29.5171 11.1731C30.3064 11.9618 30.7889 13.0061 30.8777 14.1184L31.0246 15.9563C31.1332 17.3149 31.1875 18.6758 31.1875 20.0391C31.1875 21.4024 31.1332 22.7635 31.0246 24.1223L30.8777 25.9583C30.7893 27.0703 30.3076 28.1146 29.5189 28.9036C28.7303 29.6926 27.6863 30.1748 26.5742 30.2637Z" fill="#FFF7E1"/>
<path d="M20.6533 35.8648C18.7248 35.8648 16.7725 35.7867 14.8502 35.6332C12.3208 35.4312 9.946 34.3349 8.15174 32.5406C6.35748 30.7463 5.26109 28.3716 5.05918 25.8421C4.90723 23.9199 4.8291 21.9675 4.8291 20.039C4.8291 18.1105 4.90723 16.1582 5.06074 14.2359C5.26276 11.7068 6.35897 9.33228 8.15288 7.53808C9.9468 5.74389 12.3211 4.64729 14.8502 4.44487C16.7725 4.29136 18.7248 4.21362 20.6533 4.21362C22.5818 4.21362 24.5342 4.29175 26.4564 4.44487C28.9857 4.64717 31.3603 5.74368 33.1545 7.53787C34.9487 9.33205 36.0452 11.7066 36.2475 14.2359C36.401 16.1582 36.4787 18.1105 36.4787 20.039C36.4787 21.9675 36.4006 23.9199 36.2475 25.8421C36.0454 28.3715 34.949 30.7462 33.1547 32.5404C31.3605 34.3347 28.9858 35.4311 26.4564 35.6332C24.54 35.7863 22.5932 35.864 20.6705 35.8648H20.6533ZM20.6533 6.36206C18.7814 6.36206 16.8865 6.43745 15.0213 6.58667C13.001 6.74801 11.1042 7.62374 9.67102 9.05683C8.23785 10.4899 7.36203 12.3867 7.20059 14.407C7.05176 16.2726 6.97754 18.1675 6.97754 20.039C6.97754 21.9105 7.05332 23.8054 7.20215 25.671C7.36345 27.6912 8.23901 29.5878 9.67187 31.021C11.1047 32.4541 13.0012 33.33 15.0213 33.4917C16.8869 33.6406 18.7818 33.7164 20.6533 33.7164H20.6701C22.5361 33.7164 24.4252 33.6402 26.2854 33.4917C28.3057 33.3303 30.2024 32.4545 31.6355 31.0213C33.0686 29.5882 33.9443 27.6914 34.1057 25.671C34.2549 23.8054 34.3303 21.9105 34.3303 20.039C34.3303 18.1675 34.2549 16.2726 34.1057 14.407C33.9442 12.3867 33.0685 10.49 31.6354 9.05695C30.2023 7.62386 28.3056 6.7481 26.2854 6.58667C24.4197 6.43745 22.5244 6.36206 20.6533 6.36206Z" fill="#ED9700"/>
<path d="M20.6532 28.429C18.8954 28.429 16.895 28.3536 15.3935 27.7969C13.1411 26.9618 12.6685 25.2969 12.6685 24.05C12.6685 21.7004 14.8837 19.561 17.079 18.4829C17.3346 18.3583 17.6292 18.3401 17.8982 18.4324C18.1672 18.5246 18.3886 18.7198 18.5139 18.975C18.6392 19.2303 18.6582 19.5248 18.5668 19.7941C18.4753 20.0633 18.2808 20.2853 18.0259 20.4114C17.1587 20.8375 16.3243 21.4602 15.7368 22.1196C15.3173 22.5911 14.8169 23.3086 14.8169 24.05C14.8169 24.9321 15.2005 25.434 16.1403 25.7825C17.3302 26.2239 19.177 26.2805 20.6532 26.2805C22.1294 26.2805 23.9759 26.2239 25.1661 25.7825C26.106 25.434 26.4892 24.9321 26.4892 24.05C26.4892 23.3079 25.9888 22.5911 25.5692 22.12C24.9833 21.4602 24.1478 20.8375 23.2802 20.4114C23.0253 20.2853 22.8308 20.0633 22.7393 19.7941C22.6478 19.5248 22.6668 19.2303 22.7922 18.975C22.9175 18.7198 23.1389 18.5246 23.4079 18.4324C23.6769 18.3401 23.9714 18.3583 24.2271 18.4829C26.4224 19.561 28.6376 21.7008 28.6376 24.05C28.6376 25.3 28.1649 26.9618 25.913 27.7969C24.411 28.3536 22.4114 28.429 20.6532 28.429Z" fill="#ED9700"/>
<path d="M20.6532 21.8032C18.095 21.8032 16.0142 19.5255 16.0142 16.7251C16.0142 13.9247 18.095 11.647 20.6532 11.647C23.2114 11.647 25.2919 13.9243 25.2919 16.7251C25.2919 19.5259 23.211 21.8032 20.6532 21.8032ZM20.6532 13.7981C19.2798 13.7981 18.1626 15.1118 18.1626 16.7278C18.1626 18.3438 19.2798 19.6575 20.6532 19.6575C22.0267 19.6575 23.1435 18.3438 23.1435 16.7278C23.1435 15.1118 22.0263 13.7981 20.6532 13.7981Z" fill="#ED9700"/>
</svg>
