<svg width="41" height="40" viewBox="0 0 41 40" fill="none" xmlns="http://www.w3.org/2000/svg">
<path d="M26.1153 29.5418L24.4028 29.6785C23.1401 29.7793 21.8754 29.8299 20.6087 29.8305C19.3358 29.8305 18.0636 29.7798 16.7923 29.6785L15.0794 29.5418C14.0434 29.4586 13.0708 29.0094 12.3358 28.2744C11.6009 27.5395 11.1516 26.5669 11.0685 25.5309L10.9317 23.818C10.8304 22.5516 10.7798 21.2832 10.7798 20.0129C10.7798 18.7426 10.8304 17.4741 10.9317 16.2074L11.0685 14.4949C11.1516 13.4589 11.6009 12.4863 12.3358 11.7514C13.0708 11.0164 14.0434 10.5671 15.0794 10.484L16.7923 10.3469C18.0587 10.2458 19.3271 10.1953 20.5974 10.1953C21.8677 10.1953 23.1362 10.2458 24.4028 10.3469L26.1153 10.484C27.1514 10.5671 28.1239 11.0164 28.8589 11.7514C29.5938 12.4863 30.0431 13.4589 30.1263 14.4949L30.263 16.2074C30.3643 17.4738 30.4149 18.7423 30.4149 20.0129C30.4149 21.2835 30.3643 22.5518 30.263 23.818L30.1263 25.5309C30.0431 26.5669 29.5938 27.5395 28.8589 28.2744C28.1239 29.0094 27.1514 29.4586 26.1153 29.5418Z" fill="#FCE8E5"/>
<path d="M13.0469 18.9453C12.318 18.9453 11.5797 18.9156 10.8531 18.8578C9.75979 18.7705 8.73332 18.2966 7.95772 17.5211C7.18212 16.7455 6.70812 15.7191 6.6207 14.6258C6.5625 13.8992 6.5332 13.1609 6.5332 12.4316C6.5332 11.7023 6.5625 10.9645 6.6207 10.2379C6.70803 9.1445 7.18199 8.11797 7.9576 7.34236C8.7332 6.56676 9.75973 6.0928 10.8531 6.00547C11.5797 5.94727 12.318 5.91797 13.0469 5.91797C13.7758 5.91797 14.5141 5.94727 15.241 6.00547C16.3344 6.09295 17.3608 6.56696 18.1364 7.34254C18.9119 8.11811 19.386 9.14455 19.4734 10.2379C19.5313 10.9648 19.5609 11.7027 19.5609 12.4316C19.5609 13.1605 19.5313 13.8988 19.4734 14.6258C19.386 15.7191 18.9119 16.7456 18.1364 17.5211C17.3608 18.2967 16.3344 18.7707 15.241 18.8582C14.5133 18.9161 13.7835 18.9453 13.0535 18.9457L13.0469 18.9453ZM13.0469 8.06602C12.3746 8.06602 11.6941 8.09297 11.0242 8.14687C10.4391 8.19146 9.88937 8.44406 9.47443 8.85893C9.05949 9.2738 8.8068 9.82353 8.76211 10.4086C8.70859 11.0785 8.68164 11.759 8.68164 12.4312C8.68164 13.1035 8.70859 13.7844 8.76211 14.4543C8.8068 15.0394 9.05949 15.5891 9.47443 16.004C9.88937 16.4188 10.4391 16.6714 11.0242 16.716C11.6941 16.7695 12.3746 16.7969 13.0469 16.7969H13.0531C13.723 16.7969 14.4016 16.7695 15.0699 16.716C15.655 16.6714 16.2047 16.4188 16.6196 16.0039C17.0344 15.5891 17.287 15.0393 17.3316 14.4543C17.3852 13.784 17.4125 13.1035 17.4125 12.4312C17.4125 11.759 17.3852 11.0785 17.3316 10.4086C17.287 9.82356 17.0344 9.27384 16.6196 8.85896C16.2047 8.44408 15.655 8.19147 15.0699 8.14687C14.3969 8.09331 13.722 8.06646 13.0469 8.06641V8.06602ZM28.1832 18.9453C27.4543 18.9453 26.7164 18.9156 25.9895 18.8578C24.8962 18.7703 23.8698 18.2964 23.0942 17.5209C22.3186 16.7454 21.8446 15.719 21.757 14.6258C21.6992 13.8988 21.6695 13.1605 21.6695 12.4316C21.6695 11.7027 21.6992 10.9648 21.757 10.2379C21.8445 9.14455 22.3185 8.11811 23.0941 7.34254C23.8697 6.56696 24.8961 6.09295 25.9895 6.00547C26.7164 5.94727 27.4543 5.91797 28.1836 5.91797C28.9129 5.91797 29.6508 5.94727 30.3773 6.00547C31.4707 6.09295 32.4971 6.56696 33.2727 7.34254C34.0483 8.11811 34.5223 9.14455 34.6098 10.2379C34.668 10.9648 34.6973 11.7027 34.6973 12.4316C34.6973 13.1605 34.668 13.8988 34.6098 14.6258C34.5222 15.7193 34.0481 16.7459 33.2723 17.5215C32.4964 18.2971 31.4697 18.771 30.3762 18.8582C29.6484 18.9161 28.9187 18.9453 28.1887 18.9457L28.1832 18.9453ZM28.1832 8.06602C27.5109 8.06602 26.8305 8.09297 26.1602 8.14687C25.5751 8.19147 25.0254 8.44408 24.6105 8.85896C24.1956 9.27384 23.943 9.82356 23.8984 10.4086C23.8449 11.0785 23.8176 11.7594 23.8176 12.4312C23.8176 13.1031 23.8449 13.784 23.8984 14.4543C23.943 15.0393 24.1956 15.5891 24.6105 16.0039C25.0254 16.4188 25.5751 16.6714 26.1602 16.716C26.8328 16.7703 27.5164 16.7969 28.1887 16.7969C28.8609 16.7969 29.5375 16.7695 30.2055 16.716C30.7905 16.6714 31.3402 16.4188 31.7551 16.0039C32.17 15.5891 32.4226 15.0393 32.4672 14.4543C32.5207 13.784 32.548 13.1035 32.548 12.4312C32.548 11.759 32.5207 11.0785 32.4672 10.4086C32.4226 9.82356 32.17 9.27384 31.7551 8.85896C31.3402 8.44408 30.7905 8.19147 30.2055 8.14687C29.5328 8.09329 28.8584 8.06645 28.1836 8.06641L28.1832 8.06602ZM13.0469 34.082C12.318 34.082 11.5797 34.0527 10.8531 33.9945C9.75973 33.9072 8.7332 33.4332 7.9576 32.6576C7.18199 31.882 6.70803 30.8555 6.6207 29.7621C6.5625 29.0355 6.5332 28.2973 6.5332 27.5684C6.5332 26.8395 6.5625 26.1012 6.6207 25.3742C6.70803 24.2808 7.18199 23.2543 7.9576 22.4787C8.7332 21.7031 9.75973 21.2291 10.8531 21.1418C11.5797 21.084 12.318 21.0543 13.0469 21.0543C13.7758 21.0543 14.5141 21.084 15.241 21.1418C16.3344 21.2293 17.3608 21.7033 18.1364 22.4789C18.9119 23.2544 19.386 24.2809 19.4734 25.3742C19.5313 26.1012 19.5609 26.8395 19.5609 27.5684C19.5609 28.2973 19.5313 29.0352 19.4734 29.7621C19.386 30.8554 18.9119 31.8819 18.1364 32.6575C17.3608 33.433 16.3344 33.907 15.241 33.9945C14.5133 34.0526 13.7836 34.0818 13.0535 34.082H13.0469ZM13.0469 23.2027C12.3746 23.2027 11.6941 23.2301 11.0242 23.2836C10.4389 23.3282 9.88893 23.581 9.47395 23.9962C9.05897 24.4114 8.80644 24.9615 8.76211 25.5469C8.70859 26.2168 8.68164 26.8973 8.68164 27.5699C8.68164 28.2426 8.70859 28.9227 8.76211 29.5926C8.8068 30.1776 9.05949 30.7274 9.47443 31.1422C9.88937 31.5571 10.4391 31.8097 11.0242 31.8543C11.6971 31.9082 12.3718 31.9352 13.0469 31.9352H13.0531C13.723 31.9352 14.402 31.9078 15.0699 31.8543C15.655 31.8097 16.2047 31.5571 16.6196 31.1422C17.0344 30.7273 17.287 30.1776 17.3316 29.5926C17.3852 28.9227 17.4125 28.2418 17.4125 27.5699C17.4125 26.898 17.3852 26.2172 17.3316 25.5469C17.287 24.9618 17.0344 24.4121 16.6196 23.9972C16.2047 23.5824 15.655 23.3298 15.0699 23.2852C14.3996 23.2301 13.7191 23.2031 13.0469 23.2031V23.2027ZM28.1836 34.082C27.4543 34.082 26.7164 34.0527 25.9895 33.9945C24.8961 33.907 23.8697 33.433 23.0941 32.6575C22.3185 31.8819 21.8445 30.8554 21.757 29.7621C21.6992 29.0352 21.6695 28.2973 21.6695 27.5684C21.6695 26.8395 21.6992 26.1012 21.757 25.3742C21.8445 24.2809 22.3185 23.2544 23.0941 22.4789C23.8697 21.7033 24.8961 21.2293 25.9895 21.1418C26.7164 21.084 27.4543 21.0543 28.1836 21.0543C28.9129 21.0543 29.6508 21.084 30.3773 21.1418C31.4707 21.2293 32.4971 21.7033 33.2727 22.4789C34.0483 23.2544 34.5223 24.2809 34.6098 25.3742C34.668 26.1012 34.6973 26.8395 34.6973 27.5684C34.6973 28.2973 34.668 29.0352 34.6098 29.7621C34.5222 30.8556 34.0481 31.8822 33.2723 32.6578C32.4964 33.4334 31.4697 33.9073 30.3762 33.9945C29.6484 34.0526 28.9187 34.0818 28.1887 34.082H28.1836ZM30.2063 31.8527C30.7913 31.8081 31.341 31.5555 31.7559 31.1406C32.1708 30.7258 32.4234 30.176 32.468 29.591C32.5215 28.9211 32.5488 28.2402 32.5488 27.5684C32.5488 26.8965 32.5215 26.2156 32.468 25.5453C32.4234 24.9603 32.1708 24.4106 31.7559 23.9957C31.341 23.5808 30.7913 23.3282 30.2063 23.2836C29.5363 23.2301 28.8555 23.2027 28.1836 23.2027C27.5117 23.2027 26.8309 23.2301 26.1605 23.2836C25.5755 23.3282 25.0258 23.5808 24.6109 23.9957C24.196 24.4106 23.9434 24.9603 23.8988 25.5453C23.8453 26.2156 23.818 26.8961 23.818 27.5684C23.818 28.2406 23.8453 28.9211 23.8988 29.591C23.9434 30.176 24.196 30.7258 24.6109 31.1406C25.0258 31.5555 25.5755 31.8081 26.1605 31.8527C26.8328 31.9066 27.5164 31.9332 28.1895 31.9336C28.8625 31.934 29.5383 31.9062 30.2063 31.8527Z" fill="#C12F2C"/>
</svg>
