<svg width="41" height="40" viewBox="0 0 41 40" fill="none" xmlns="http://www.w3.org/2000/svg">
<path d="M10.4854 20.629C10.4854 23.2748 11.5364 25.8123 13.4073 27.6832C15.2782 29.5541 17.8157 30.6052 20.4615 30.6052C23.1074 30.6052 25.6448 29.5541 27.5157 27.6832C29.3866 25.8123 30.4377 23.2748 30.4377 20.629C30.4377 17.9832 29.3866 15.4457 27.5157 13.5748C25.6448 11.7039 23.1074 10.6528 20.4615 10.6528C17.8157 10.6528 15.2782 11.7039 13.4073 13.5748C11.5364 15.4457 10.4854 17.9832 10.4854 20.629Z" fill="#E7F4EB"/>
<path d="M20.3678 35.0391C17.7164 35.0387 15.1165 34.3068 12.8542 32.9239C10.592 31.5411 8.75509 29.5609 7.54575 27.2013C6.33641 24.8418 5.80149 22.1943 5.99987 19.5503C6.19825 16.9063 7.12225 14.3683 8.67015 12.2156C10.3928 9.82315 12.8063 8.01512 15.5866 7.03439C15.8555 6.93991 16.151 6.95613 16.4079 7.0795C16.5352 7.14058 16.6492 7.22613 16.7433 7.33126C16.8375 7.43638 16.9101 7.55903 16.9569 7.6922C17.0037 7.82537 17.0237 7.96645 17.016 8.10739C17.0083 8.24832 16.9728 8.38635 16.9118 8.5136C16.8507 8.64084 16.7651 8.75481 16.66 8.84899C16.5549 8.94318 16.4322 9.01573 16.2991 9.06252C14.3325 9.75564 12.5753 10.9388 11.1934 12.5003C9.81158 14.0617 8.85079 15.9498 8.40189 17.986C7.95299 20.0222 8.03082 22.1392 8.62801 24.1369C9.22521 26.1347 10.322 27.9471 11.8148 29.4028C13.3076 30.8586 15.147 31.9096 17.1591 32.4564C19.1712 33.0033 21.2895 33.028 23.3138 32.5281C25.3381 32.0282 27.2014 31.0203 28.7277 29.5997C30.2539 28.1791 31.3926 26.3927 32.0362 24.4094C32.0776 24.2728 32.1459 24.1459 32.237 24.0361C32.328 23.9262 32.4401 23.8356 32.5665 23.7695C32.693 23.7034 32.8314 23.6631 32.9736 23.6511C33.1158 23.6391 33.259 23.6556 33.3947 23.6995C33.5305 23.7434 33.6562 23.814 33.7644 23.907C33.8726 24.0001 33.9612 24.1137 34.025 24.2414C34.0888 24.369 34.1265 24.5081 34.1359 24.6505C34.1453 24.7929 34.1263 24.9358 34.0799 25.0707C33.1406 27.9678 31.3077 30.493 28.8442 32.2838C26.3808 34.0747 23.4134 35.0392 20.3678 35.0391Z" fill="#217D40"/>
<path d="M32.6883 21.7382H22.8836C21.9233 21.7371 21.0027 21.3552 20.3237 20.6762C19.6447 19.9972 19.2628 19.0766 19.2617 18.1163V8.31161C19.2616 7.85906 19.3598 7.41189 19.5494 7.00101C19.7391 6.59014 20.0158 6.22536 20.3603 5.9319C20.7048 5.63844 21.1089 5.4233 21.5447 5.30137C21.9805 5.17943 22.4376 5.1536 22.8844 5.22567C26.1108 5.75736 29.0895 7.2868 31.4017 9.599C33.7139 11.9112 35.2433 14.8899 35.775 18.1163C35.8471 18.5631 35.8212 19.0202 35.6993 19.456C35.5774 19.8918 35.3622 20.2959 35.0688 20.6404C34.7753 20.9849 34.4105 21.2616 33.9997 21.4512C33.5888 21.6409 33.1416 21.7391 32.6891 21.739L32.6883 21.7382ZM22.3758 7.33309C22.1485 7.33428 21.929 7.41624 21.7566 7.56434C21.648 7.65641 21.5606 7.77106 21.5008 7.90033C21.441 8.02959 21.41 8.17034 21.4102 8.31278V18.1175C21.4106 18.5081 21.5659 18.8827 21.8422 19.1589C22.1184 19.4351 22.4929 19.5905 22.8836 19.5909H32.6883C32.8307 19.591 32.9715 19.5601 33.1007 19.5003C33.23 19.4404 33.3447 19.3531 33.4367 19.2444C33.5284 19.1383 33.5955 19.0133 33.6332 18.8782C33.6708 18.7431 33.6782 18.6014 33.6547 18.4632C33.1938 15.6817 31.8741 13.1142 29.8805 11.1206C27.8869 9.12699 25.3194 7.80724 22.5379 7.34637C22.4847 7.33749 22.4309 7.33305 22.377 7.33309H22.3758Z" fill="#217D40"/>
</svg>
